<svg width="200" height="200" viewBox="0 0 200 200" fill="none" xmlns="http://www.w3.org/2000/svg">
<mask id="mask0_492_3623" style="mask-type:luminance" maskUnits="userSpaceOnUse" x="40" y="18" width="121" height="165">
<path d="M40 18H160.69V182.522H40V18Z" fill="white"/>
</mask>
<g mask="url(#mask0_492_3623)">
<path d="M146.691 144.549C151.757 139.14 152.601 133.844 155.435 132.855C158.269 131.867 158.284 136.432 157.425 139.439C156.726 141.879 154.849 146.309 149.654 149.858" fill="white"/>
<path d="M146.691 144.549C151.757 139.14 152.601 133.844 155.435 132.855C158.269 131.867 158.284 136.432 157.425 139.439C156.726 141.879 154.849 146.309 149.654 149.858" stroke="black" stroke-width="0.945" stroke-linecap="round" stroke-linejoin="round"/>
<path d="M141.153 118.444C141.153 118.444 145.961 119.26 149.267 121.665C149.267 121.665 147.979 124.672 144.5 126.259C144.5 126.259 146.131 127.72 147.249 131.24C147.249 131.24 142.57 131.842 137.504 130.381L131.021 123.038L141.153 118.444Z" fill="#4CD8E5" stroke="black" stroke-width="0.945" stroke-linecap="round" stroke-linejoin="round"/>
<path d="M68.0758 117.456C68.0758 117.456 64.6978 124.697 63.4378 135.116C62.3988 143.725 62.7928 154.38 62.7928 154.38C62.7928 154.38 57.5978 157.1 57.2548 164.713C56.9958 170.46 60.4528 175.239 65.5548 176.791C72.8808 179.024 81.7248 177.05 81.7248 177.05C81.7248 177.05 96.3508 178.737 109.462 177.881C109.462 177.881 120.854 179.483 131.675 179.313C131.675 179.313 138.637 182.062 144.786 180.516C153.203 178.397 157.667 172.273 159.355 166.577C161.08 160.762 160.186 155.444 156.921 152.179C153.659 148.917 150.681 149.833 150.681 149.833C150.681 149.833 145.699 134.033 134.481 122.868L68.0728 117.459L68.0758 117.456Z" fill="white" stroke="black" stroke-width="0.945" stroke-linecap="round" stroke-linejoin="round"/>
<path d="M67.56 136.262C67.56 136.262 65.844 145.022 67.217 153.608C68.59 162.194 72.711 171.47 72.711 171.47C72.711 171.47 70.394 172.972 70.822 175.979C71.25 178.986 72.283 180.315 74.859 180.488C77.434 180.661 78.379 179.2 78.379 179.2C78.379 179.2 79.537 181.646 83.316 181.561C87.094 181.476 87.009 179.027 87.009 179.027C87.009 179.027 90.142 181.687 92.031 179.798C93.921 177.909 93.234 174.902 92.031 173.529C90.828 172.157 87.421 159.502 85.819 149.543" fill="white"/>
<path d="M67.56 136.262C67.56 136.262 65.844 145.022 67.217 153.608C68.59 162.194 72.711 171.47 72.711 171.47C72.711 171.47 70.394 172.972 70.822 175.979C71.25 178.986 72.283 180.315 74.859 180.488C77.434 180.661 78.379 179.2 78.379 179.2C78.379 179.2 79.537 181.646 83.316 181.561C87.094 181.476 87.009 179.027 87.009 179.027C87.009 179.027 90.142 181.687 92.031 179.798C93.921 177.909 93.234 174.902 92.031 173.529C90.828 172.157 87.421 159.502 85.819 149.543" stroke="black" stroke-width="0.945" stroke-linecap="round" stroke-linejoin="round"/>
<path d="M107.233 147.481C107.233 147.481 105.457 161.791 103.054 171.354C103.054 171.354 100.192 173.356 100.964 177.135C101.735 180.913 103.883 180.526 105.17 180.57C106.458 180.614 107.875 179.71 107.875 179.71C107.875 179.71 108.303 181.773 111.31 182.028C114.317 182.283 115.218 179.88 115.218 179.88C115.218 179.88 116.335 182.028 119.169 181.083C122.003 180.139 122.261 179.238 122.519 177.434C122.777 175.63 121.187 174.556 121.187 174.556C121.187 174.556 124.808 167.229 127.041 159.556C129.273 151.886 129.616 145.472 129.616 145.472" fill="white"/>
<path d="M107.233 147.481C107.233 147.481 105.457 161.791 103.054 171.354C103.054 171.354 100.192 173.356 100.964 177.135C101.735 180.913 103.883 180.526 105.17 180.57C106.458 180.614 107.875 179.71 107.875 179.71C107.875 179.71 108.303 181.773 111.31 182.028C114.317 182.283 115.218 179.88 115.218 179.88C115.218 179.88 116.335 182.028 119.169 181.083C122.003 180.139 122.261 179.238 122.519 177.434C122.777 175.63 121.187 174.556 121.187 174.556C121.187 174.556 124.808 167.229 127.041 159.556C129.273 151.886 129.616 145.472 129.616 145.472" stroke="black" stroke-width="0.945" stroke-linecap="round" stroke-linejoin="round"/>
<path d="M65.498 109.698C65.498 109.698 66.14 119.383 68.36 123.952C72.195 131.851 77.62 136.162 80.781 139.638C84.244 143.445 87.938 149.197 87.938 149.197C87.938 149.197 98.586 147.994 113.07 141.241C127.721 134.408 136.6 128.36 139.692 120.516L65.498 109.698Z" fill="#4CD8E5" stroke="black" stroke-width="0.945" stroke-linecap="round" stroke-linejoin="round"/>
<path d="M67.2451 114.735C67.2451 114.735 72.6201 120.128 75.7461 124.496C77.1815 126.492 78.6703 128.449 80.2111 130.365M108.379 135.06C108.379 135.06 121.716 129.909 131.134 123.668" stroke="black" stroke-width="0.945" stroke-linecap="round" stroke-linejoin="round"/>
<path d="M156.578 73.004C156.924 83.822 153 89.5 153 89.5C153 89.5 156.351 96.416 154.689 105.406C152.954 114.811 144.216 123.608 134.37 124.928C123.618 126.363 118.744 124.928 118.744 124.928C118.744 124.928 104.899 129.156 89.3168 126.53C75.0628 124.125 64.1618 115.094 64.1618 115.094C64.1618 115.094 52.1058 107.235 45.4058 98.536C39.2538 90.54 39.3098 81.275 43.0898 74.52C46.8678 67.763 50.7308 65.673 50.7308 65.673C50.7308 65.673 53.3128 56.63 57.8348 48.27C58.1488 47.688 58.4798 47.111 58.8198 46.541C58.8198 46.541 67.2578 41.214 89.7798 41.743C109.186 42.203 127.306 48.969 136.837 53.881C149.948 60.635 156.358 69.253 156.358 69.253C156.462 70.443 156.541 71.693 156.582 73.003H156.579L156.578 73.004Z" fill="white"/>
<path d="M94.6731 28.793C97.8631 28.544 101.984 28.494 107.018 28.963C120.328 30.21 130.016 35.3891 130.016 35.3891C130.016 35.3891 134.197 29.1431 141.537 28.7491C148.75 28.3621 154.994 33.4341 156.823 40.3861C159.342 49.9611 153.646 55.9281 153.646 55.9281C153.646 55.9281 155.63 61.126 156.354 69.253C156.354 69.253 149.081 60.6351 135.97 53.8811C126.439 48.969 108.319 42.2031 88.9141 41.7431C66.3921 41.2141 57.9541 46.5421 57.9541 46.5421C61.2541 41.0071 65.4121 36.35 65.4121 36.35C65.4121 36.35 64.1251 28.6641 70.5641 22.3101C77.0061 15.956 85.3341 18.932 88.6841 21.05C93.4791 24.083 94.6731 28.7901 94.6731 28.7901V28.793Z" fill="white"/>
<path d="M86.593 30.1821C86.593 30.1821 89.32 29.2091 94.673 28.7931C97.863 28.5441 101.984 28.4941 107.018 28.9631C120.328 30.2101 130.016 35.3891 130.016 35.3891C130.016 35.3891 134.197 29.1431 141.537 28.7491C148.75 28.3621 154.994 33.4341 156.823 40.3861C159.342 49.9611 153.646 55.9281 153.646 55.9281C153.646 55.9281 155.63 61.1261 156.354 69.2531C156.458 70.4431 156.537 71.6931 156.578 73.0031C156.924 83.8221 153.5 89.5 153.5 89.5C153.5 89.5 156.351 96.4161 154.689 105.406C152.954 114.81 143.353 123.608 133.508 124.927C122.755 126.363 117.881 124.927 117.881 124.927C117.881 124.927 104.037 129.156 88.454 126.53C74.2 124.124 62.324 113.598 62.324 113.598C62.324 113.598 52.104 107.235 45.403 98.5351C39.251 90.5411 39.307 81.2751 43.086 74.5211C46.864 67.7641 50.727 65.6731 50.727 65.6731C50.727 65.6731 52.447 56.6301 56.967 48.2701C57.283 47.6881 57.613 47.1121 57.953 46.5421C61.253 41.0071 65.413 36.3501 65.413 36.3501C65.413 36.3501 64.125 28.6641 70.563 22.3101C77.006 15.956 85.333 18.932 88.683 21.0501C93.479 24.0831 94.673 28.7901 94.673 28.7901" stroke="black" stroke-width="0.945" stroke-linecap="round" stroke-linejoin="round"/>
<path d="M83.8316 73.3311C84.8428 73.3311 85.8127 72.9293 86.5278 72.2143C87.2428 71.4992 87.6446 70.5293 87.6446 69.5181C87.6446 68.5068 87.2428 67.537 86.5278 66.8219C85.8127 66.1068 84.8428 65.7051 83.8316 65.7051C82.8203 65.7051 81.8504 66.1068 81.1354 66.8219C80.4203 67.537 80.0186 68.5068 80.0186 69.5181C80.0186 70.5293 80.4203 71.4992 81.1354 72.2143C81.8504 72.9293 82.8203 73.3311 83.8316 73.3311Z" fill="black"/>
<path d="M82.32 68.866C82.4353 68.8699 82.5503 68.8506 82.658 68.8092C82.7657 68.7678 82.864 68.7051 82.9469 68.6249C83.0299 68.5447 83.0959 68.4486 83.141 68.3424C83.1861 68.2361 83.2093 68.1219 83.2093 68.0065C83.2093 67.8911 83.1861 67.7769 83.141 67.6706C83.0959 67.5644 83.0299 67.4683 82.9469 67.3881C82.864 67.3079 82.7657 67.2452 82.658 67.2038C82.5503 67.1624 82.4353 67.143 82.32 67.147C82.0919 67.147 81.8731 67.2376 81.7119 67.3989C81.5506 67.5602 81.46 67.7789 81.46 68.007C81.46 68.2351 81.5506 68.4538 81.7119 68.6151C81.8731 68.7764 82.0919 68.866 82.32 68.866Z" fill="white"/>
<path d="M104.15 78.4002C105.161 78.4002 106.131 77.9984 106.846 77.2834C107.561 76.5683 107.963 75.5984 107.963 74.5872C107.963 73.5759 107.561 72.606 106.846 71.891C106.131 71.1759 105.161 70.7742 104.15 70.7742C103.139 70.7742 102.169 71.1759 101.454 71.891C100.739 72.606 100.337 73.5759 100.337 74.5872C100.337 75.5984 100.739 76.5683 101.454 77.2834C102.169 77.9984 103.139 78.4002 104.15 78.4002Z" fill="black"/>
<path d="M102.639 73.936C102.867 73.936 103.086 73.8455 103.247 73.6844C103.408 73.5233 103.498 73.3048 103.498 73.077C103.498 72.8492 103.408 72.6307 103.247 72.4696C103.086 72.3085 102.867 72.218 102.639 72.218C102.411 72.218 102.193 72.3085 102.032 72.4696C101.871 72.6307 101.78 72.8492 101.78 73.077C101.78 73.3048 101.871 73.5233 102.032 73.6844C102.193 73.8455 102.411 73.936 102.639 73.936Z" fill="white"/>
<path d="M91.3978 77.436C94.6408 77.899 96.5968 79.505 96.7848 81.107C96.9958 82.915 93.4668 84.921 90.9848 85.494C89.8108 85.764 88.7468 85.701 87.5878 84.851C86.0038 83.689 83.8278 81.171 84.8328 79.241C85.9378 77.115 88.1488 76.973 91.3978 77.436Z" fill="black"/>
<path d="M87.226 80.0911C88.064 80.0911 88.744 79.6991 88.744 79.2161C88.744 78.7321 88.064 78.3401 87.226 78.3401C86.388 78.3401 85.709 78.7321 85.709 79.2161C85.709 79.6991 86.389 80.0911 87.226 80.0911Z" fill="white"/>
<path d="M101.789 91.376C101.789 91.376 100.92 95.816 98.7716 99.723C96.6276 103.63 93.3786 106.064 89.9276 105.777C87.0586 105.538 84.7036 102.572 83.8756 98.778C82.9816 94.698 83.4036 91.429 83.4226 91.297C86.8106 91.964 88.9126 88.832 88.9126 88.832C88.9126 88.832 90.1726 93.412 95.2106 93.784C98.4066 94.02 100.542 92.622 101.789 91.376Z" fill="#FF6B6B"/>
<path d="M79.6382 85.71C79.6382 85.71 79.2952 89.634 82.2422 90.922C82.6522 91.102 83.0452 91.224 83.4222 91.297C86.8112 91.964 88.9142 88.831 88.9142 88.831C88.9142 88.831 90.1742 93.412 95.2112 93.784C98.4072 94.02 100.542 92.622 101.789 91.375C102.733 90.431 103.168 89.575 103.168 89.575" stroke="black" stroke-width="0.945" stroke-linecap="round" stroke-linejoin="round"/>
<path d="M83.423 91.293C83.403 91.429 82.982 94.697 83.876 98.778C84.704 102.572 87.059 105.538 89.928 105.777C93.378 106.064 96.628 103.63 98.772 99.722C100.92 95.815 101.789 91.375 101.789 91.375" stroke="black" stroke-width="0.945" stroke-linecap="round" stroke-linejoin="round"/>
<path d="M70.0912 33.13C75.7812 30.83 82.8662 29.178 87.9542 28.47C88.9992 28.325 89.7172 27.345 88.4262 25.828C86.4522 23.51 82.3302 21.986 79.7512 21.813C77.1762 21.64 75.3712 22.415 73.5682 24.175C72.1762 25.535 69.6822 28.769 68.9742 31.108C68.5902 32.374 68.7062 33.687 70.0912 33.126V33.13ZM134.053 38.368C139.49 40.658 146.912 46.684 149.279 50.305C150.252 51.795 151.512 52.093 151.94 50.163C152.368 48.23 152.828 43.567 152.053 40.088C151.282 36.608 147.787 33.161 142.907 32.83C138.98 32.566 135.366 34.933 133.876 35.935C133.07 36.479 132.425 37.685 134.049 38.368H134.053Z" fill="#FEE2E2"/>
<path d="M89.597 85.207C89.597 85.207 89.077 87.802 88.917 88.832" stroke="black" stroke-width="0.945" stroke-linecap="round" stroke-linejoin="round"/>
</g>
<path d="M87 41.5C92.8603 44 70.0056 48.4999 66.1396 48.4999C62.2736 48.4999 58.5 48.4999 59.1396 45.9999C61.5 43 62.2736 43.4999 66.1396 43.4999C70 42.4999 100.36 36.5 87 41.5Z" fill="white"/>
</svg>
