<svg width="200" height="200" viewBox="0 0 200 200" fill="none" xmlns="http://www.w3.org/2000/svg">
<mask id="mask0_492_3684" style="mask-type:luminance" maskUnits="userSpaceOnUse" x="18" y="11" width="163" height="179">
<path d="M18 11H181V189.473H18V11Z" fill="white"/>
</mask>
<g mask="url(#mask0_492_3684)">
<path d="M147.138 158.002C147.138 158.002 150.896 156.193 153.629 150.805C155.989 146.151 158.973 145.795 160.57 147.967C162.486 150.576 161.098 154.885 158.698 157.683C155.786 161.08 152.39 163.842 147.955 165.153" fill="white"/>
<path d="M147.138 158.002C147.138 158.002 150.896 156.193 153.629 150.805C155.989 146.151 158.973 145.795 160.57 147.967C162.486 150.576 161.098 154.885 158.698 157.683C155.786 161.08 152.39 163.842 147.955 165.153" stroke="black" stroke-width="0.996" stroke-linecap="round" stroke-linejoin="round"/>
<path d="M147.228 161.352C147.228 161.352 150.063 164.383 155.242 162.438C163.073 159.496 163.618 155.151 165.925 154.155C167.88 153.312 168.896 154.729 169.261 156.781C169.626 158.832 169.185 164.34 163.754 167.421C159.339 169.924 152.981 170.724 147.138 167.012" fill="white"/>
<path d="M147.228 161.352C147.228 161.352 150.063 164.383 155.242 162.438C163.073 159.496 163.618 155.151 165.925 154.155C167.88 153.312 168.896 154.729 169.261 156.781C169.626 158.832 169.185 164.34 163.754 167.421C159.339 169.924 152.981 170.724 147.138 167.012" stroke="black" stroke-width="0.996" stroke-linecap="round" stroke-linejoin="round"/>
<path d="M105.296 183.152C103.534 185.453 101.87 187.01 100.42 187.697C97.9295 188.876 95.7585 187.471 95.7585 187.471C95.7585 187.471 94.5835 189.121 90.9585 188.965C87.8335 188.829 86.2505 187.11 86.2505 187.11C86.2505 187.11 83.3095 189.736 80.7305 187.88C79.7005 187.139 78.9635 186.047 78.6055 184.573C75.4015 185.646 72.8555 184.484 72.8555 184.484C72.5855 185.134 72.1775 185.639 71.6005 185.931C69.2035 187.136 67.1915 185.39 67.1915 185.39C67.1915 185.39 66.0095 187.322 63.3015 187.518C60.1305 187.744 58.7265 186.565 58.7265 186.565C55.1045 189.055 51.5295 186.505 51.5295 186.505C47.5455 180.47 41.7725 166.258 40.4845 148.63C39.1265 130.07 42.3835 119.712 42.3835 119.712L127.17 116.047C127.17 116.047 130.56 118.205 137.451 126.63C144.785 135.594 148.951 146.579 149.582 160.16C150.216 173.741 148.015 182.611 139.988 185.088C131.423 187.727 121.364 185.752 121.364 185.752C121.364 185.752 117.782 186.788 113.098 186.323C106.969 185.722 105.296 183.152 105.296 183.152Z" fill="white"/>
<path d="M41.1445 115.071C41.1445 115.071 46.7785 128.656 55.6915 139.94C64.8815 151.575 72.8945 155.738 72.8945 155.738C72.8945 155.738 86.1445 148.873 96.7075 139.578C104.931 132.344 123.372 116.446 123.372 116.446L41.1485 115.071H41.1445Z" fill="#4CD8E5" stroke="black" stroke-width="0.996" stroke-linecap="round" stroke-linejoin="round"/>
<path d="M49.1426 120.804C49.1426 120.804 55.2076 129.316 60.3996 134.113M54.1846 122.856C54.1846 122.856 56.9896 127.806 60.8546 130.943M88.8766 136.589C88.8766 136.589 100.645 129.482 107.71 123.732" stroke="black" stroke-width="0.996" stroke-linecap="round" stroke-linejoin="round"/>
<path d="M139.871 56.1051C141.717 64.4451 142.761 74.689 139 82C139 82 141.916 91.6801 137.089 103.269C132.259 114.858 120.401 121.77 110.017 124.545C99.636 127.324 87.655 126.056 87.655 126.056C87.655 126.056 75.252 128.35 61.037 126.175C47.619 124.124 39.034 117.574 39.034 117.574C39.034 117.574 25.32 114.523 20.536 101.068C14.59 84.3471 23.554 73.6641 23.554 73.6641C23.554 73.6641 21.004 59.9001 24.005 50.0341C24.5822 48.1407 25.2785 46.2856 26.09 44.4801C26.09 44.4801 34.539 34.4301 58.803 30.8091C83.067 27.1871 106.501 36.9201 118.077 42.3991C130.45 48.2541 139.871 56.1051 139.871 56.1051Z" fill="white"/>
<path d="M127.907 33.3751C130.175 36.0211 134.504 41.5511 137.332 48.1311C138.381 50.5711 139.248 53.2741 139.872 56.1051C139.872 56.1051 130.45 48.2551 118.077 42.3981C106.502 36.9201 83.0668 27.1871 58.8028 30.8081C34.5398 34.4321 26.0898 44.4801 26.0898 44.4801C31.0468 33.4251 38.7648 27.4001 38.7648 27.4001C38.7648 27.4001 38.4458 18.8881 43.1998 14.0441C47.9538 9.20006 53.4188 12.4311 55.8748 14.2271C58.6838 16.2751 60.9848 18.8471 61.0538 18.9271C66.0638 17.6171 73.0778 16.4571 81.9518 16.6231C93.7198 16.8431 101.538 19.3291 105.29 20.8731C105.29 20.8731 108.072 15.4481 114.681 13.2731C121.291 11.1031 125.988 15.9301 127.403 19.1131C130.616 26.3571 127.907 33.3751 127.907 33.3751Z" fill="white"/>
<path d="M51.9209 22.297C51.9209 22.297 55.0479 20.501 61.0539 18.927C66.0639 17.617 73.0779 16.457 81.9519 16.624C93.7199 16.843 101.538 19.329 105.29 20.874C107.009 21.58 107.876 22.088 107.876 22.088" stroke="black" stroke-width="0.996" stroke-linecap="round" stroke-linejoin="round"/>
<path d="M105.29 20.873C105.29 20.873 108.072 15.449 114.681 13.274C121.291 11.104 125.988 15.93 127.402 19.114C130.616 26.357 127.907 33.375 127.907 33.375" stroke="black" stroke-width="0.996" stroke-linecap="round" stroke-linejoin="round"/>
<path d="M126.407 31.6981C126.407 31.6981 126.987 32.2991 127.907 33.3751C130.174 36.0211 134.503 41.5511 137.332 48.1311C138.381 50.5711 139.247 53.2741 139.871 56.1051C141.717 64.4451 142.261 74.689 138.5 82C138.5 82 141.916 91.6801 137.089 103.269C132.259 114.858 120.401 121.77 110.017 124.545C99.636 127.324 87.655 126.056 87.655 126.056C87.655 126.056 75.252 128.35 61.037 126.175C47.619 124.124 39.034 117.574 39.034 117.574C39.034 117.574 25.32 114.523 20.536 101.068C14.59 84.3471 23.554 73.6641 23.554 73.6641C23.554 73.6641 21.004 59.9001 24.005 50.0341C24.5822 48.1406 25.2786 46.2856 26.09 44.4801C31.047 33.4251 38.765 27.4001 38.765 27.4001C38.765 27.4001 38.446 18.8881 43.2 14.0441C47.954 9.20006 53.418 12.4311 55.875 14.2271C58.684 16.2751 60.984 18.8471 61.054 18.9271H61.057" stroke="black" stroke-width="0.996" stroke-linecap="round" stroke-linejoin="round"/>
<path d="M53.1059 73.2752C54.1324 73.2752 55.1168 72.8674 55.8427 72.1415C56.5686 71.4157 56.9764 70.4312 56.9764 69.4047C56.9764 68.3782 56.5686 67.3937 55.8427 66.6678C55.1168 65.942 54.1324 65.5342 53.1059 65.5342C52.0793 65.5342 51.0949 65.942 50.369 66.6678C49.6431 67.3937 49.2354 68.3782 49.2354 69.4047C49.2354 70.4312 49.6431 71.4157 50.369 72.1415C51.0949 72.8674 52.0793 73.2752 53.1059 73.2752Z" fill="black"/>
<path d="M51.5245 68.293C52.0435 67.775 52.1745 67.064 51.8155 66.706C51.4575 66.349 50.7475 66.479 50.2285 66.998C49.7105 67.516 49.5805 68.227 49.9385 68.584C50.2955 68.942 51.0065 68.811 51.5245 68.293Z" fill="white"/>
<path d="M76.6802 73.836C77.2047 73.8443 77.7255 73.7482 78.2125 73.5533C78.6995 73.3583 79.1428 73.0685 79.5166 72.7005C79.8905 72.3326 80.1874 71.8939 80.39 71.4101C80.5927 70.9263 80.6971 70.407 80.6971 69.8825C80.6971 69.3579 80.5927 68.8386 80.39 68.3548C80.1874 67.871 79.8905 67.4324 79.5166 67.0644C79.1428 66.6965 78.6995 66.4066 78.2125 66.2117C77.7255 66.0167 77.2047 65.9206 76.6802 65.929C75.6425 65.9455 74.653 66.3693 73.925 67.1089C73.1971 67.8485 72.7891 68.8447 72.7891 69.8825C72.7891 70.9202 73.1971 71.9164 73.925 72.656C74.653 73.3957 75.6425 73.8195 76.6802 73.836Z" fill="black"/>
<path d="M75.2489 68.6581C75.7309 68.0861 75.8029 67.3531 75.4079 67.0191C75.0129 66.6851 74.3009 66.8791 73.8179 67.4491C73.3359 68.0211 73.2649 68.7551 73.6589 69.0891C74.0539 69.4221 74.7659 69.2291 75.2489 68.6581Z" fill="white"/>
<path d="M62.2793 75.5661C64.9943 75.5891 67.8093 76.0841 68.3913 77.0601C69.6593 79.1881 64.6793 82.2651 63.2283 82.9461C61.8783 83.5801 60.3173 83.1481 59.2913 82.5141C58.2653 81.8801 55.2183 79.7091 55.8513 77.5581C56.3663 75.8151 59.5633 75.5421 62.2793 75.5661Z" fill="black"/>
<path d="M73.3196 92.308C73.3196 92.308 71.6736 98.11 68.0976 102.137C65.9866 104.514 61.8076 106.35 58.9976 101.46C56.6446 97.36 56.4326 92.102 56.4326 92.102C56.5646 92.085 56.7016 92.065 56.8406 92.042C59.8686 91.504 61.3986 89.645 61.3986 89.645C61.3986 89.645 62.3846 92.347 67.3736 93.28C70.0796 93.788 72.0086 93.164 73.3196 92.308Z" fill="#FF6B6B"/>
<path d="M62.0625 81.6602C62.0625 81.6602 60.0705 85.3121 61.3985 89.6451M61.3985 89.6451C61.3985 89.6451 62.3845 92.3472 67.3745 93.2802C70.0805 93.7882 72.0085 93.1642 73.3205 92.3072C74.9765 91.2282 75.6435 89.7812 75.6435 89.7812M61.3985 89.6451C61.3985 89.6451 59.8685 91.5052 56.8405 92.0422C56.7051 92.0652 56.5691 92.0839 56.4325 92.0982C53.1625 92.4602 51.7715 89.8712 51.7715 89.8712" stroke="black" stroke-width="0.996" stroke-linecap="round" stroke-linejoin="round"/>
<path d="M56.4332 92.1021C56.4332 92.1021 56.6452 97.3601 58.9992 101.46C61.8072 106.35 65.9872 104.514 68.0992 102.137C71.6742 98.1101 73.3202 92.3071 73.3202 92.3071M42.3802 119.712C42.3802 119.712 39.1242 130.07 40.4812 148.63C41.8392 167.191 47.5432 180.47 51.5262 186.505C51.5262 186.505 55.1022 189.055 58.7242 186.565C58.7242 186.565 60.1282 187.744 63.2942 187.515C66.0072 187.322 67.1892 185.387 67.1892 185.387C67.1892 185.387 69.2012 187.136 71.5942 185.931C73.7522 184.846 73.5072 180.782 72.8462 177.419C71.8502 172.35 67.7302 165.242 67.7302 165.242M85.1622 163.888C85.1622 163.888 81.9482 169.366 79.6842 175.793C77.4372 182.173 78.2242 186.081 80.7272 187.88C83.3072 189.736 86.2512 187.11 86.2512 187.11C86.2512 187.11 87.8342 188.83 90.9582 188.966C94.5802 189.122 95.7552 187.472 95.7552 187.472C95.7552 187.472 97.9302 188.876 100.42 187.697C103.128 186.416 106.578 182.084 110.063 175.564C113.911 168.37 116.673 159.812 116.673 159.812" stroke="black" stroke-width="0.996" stroke-linecap="round" stroke-linejoin="round"/>
<path d="M72.8555 184.483C72.8555 184.483 75.4015 185.645 78.6055 184.573M105.295 183.152C105.295 183.152 106.968 185.722 113.093 186.323C117.781 186.784 121.363 185.748 121.363 185.748C121.363 185.748 131.418 187.724 139.983 185.084C148.01 182.611 150.215 173.738 149.581 160.156C148.947 146.575 144.784 135.59 137.447 126.627C130.555 118.201 127.166 116.043 127.166 116.043M159.298 138.31C159.298 138.31 167.155 141.092 171.972 147.422C178.492 155.994 179.156 164.868 179.156 164.868M166.661 138.19C166.661 138.19 171.398 140.414 174.629 144.225C178.825 149.175 180.498 154.019 180.498 154.019" stroke="black" stroke-width="0.996" stroke-linecap="round" stroke-linejoin="round"/>
<path d="M42.9705 25.1821C41.8285 25.8621 40.9725 26.7221 40.5475 24.7311C40.1255 22.7391 40.9555 18.4601 42.7645 16.1061C44.3615 14.0281 46.2745 14.0081 48.4445 14.7951C50.6195 15.5781 53.3345 17.7751 54.0585 18.6191C54.7825 19.4661 55.2205 20.5311 53.5445 20.8831C49.0795 21.8191 45.5005 23.6751 42.9675 25.1831H42.9705V25.1821ZM115.839 15.6601C113.183 16.6901 110.315 19.3421 109.651 20.3081C108.987 21.2741 108.851 22.0481 110.344 22.6321C112.818 23.5981 119.52 27.0081 121.994 28.7571C123.288 29.6731 124.198 29.7831 124.679 28.5151C125.161 27.2471 126.249 22.0251 123.202 17.6491C121.134 14.6811 118.252 14.7211 115.839 15.6571V15.6611V15.6601Z" fill="#FEE2E2"/>
<path d="M59.2155 77.7362C60.0645 77.5992 60.6875 77.0832 60.6055 76.5832C60.5255 76.0842 59.7725 75.7902 58.9235 75.9272C58.0735 76.0652 57.4515 76.5812 57.5325 77.0802C57.6125 77.5802 58.3665 77.8742 59.2155 77.7362Z" fill="white"/>
</g>
</svg>
