<svg width="24" height="24" viewBox="0 0 24 24" fill="none" xmlns="http://www.w3.org/2000/svg">
<circle cx="12" cy="12" r="9" fill="#FCFCD4"/>
<path fill-rule="evenodd" clip-rule="evenodd" d="M12 20C16.4183 20 20 16.4183 20 12C20 7.58172 16.4183 4 12 4C7.58172 4 4 7.58172 4 12C4 16.4183 7.58172 20 12 20ZM12 22C17.5228 22 22 17.5228 22 12C22 6.47715 17.5228 2 12 2C6.47715 2 2 6.47715 2 12C2 17.5228 6.47715 22 12 22Z" fill="#FCFCD4"/>
<path d="M12 14.0004C11.4477 14.0004 11 13.5527 11 13.0004V8C11 7.44771 11.4477 7 12 7V7C12.5523 7 13 7.44772 13 8V13.0004C13 13.5527 12.5523 14.0004 12 14.0004V14.0004V14.0004ZM12 17.5C11.4477 17.5 11 17.0523 11 16.5V16.5C11 15.9477 11.4477 15.5 12 15.5V15.5C12.5523 15.5 13 15.9477 13 16.5V16.5C13 17.0523 12.5523 17.5 12 17.5V17.5Z" fill="#F84D4D"/>
</svg>
