<svg width="200" height="200" viewBox="0 0 200 200" fill="none" xmlns="http://www.w3.org/2000/svg">
<mask id="mask0_491_3358" style="mask-type:luminance" maskUnits="userSpaceOnUse" x="43" y="5" width="114" height="190">
<path d="M43 5H156.994V195H43V5Z" fill="white"/>
</mask>
<g mask="url(#mask0_491_3358)">
<path d="M137.583 150.039C137.583 150.039 142.983 147.942 146.797 147.978C149.869 148.007 151.42 148.724 152.021 150.466C152.665 152.339 151.878 154.871 148.137 156.348C145.611 157.346 140.511 158.815 136.451 156.187" fill="white"/>
<path d="M137.583 150.039C137.583 150.039 142.983 147.942 146.797 147.978C149.869 148.007 151.42 148.724 152.021 150.466C152.665 152.339 151.878 154.871 148.137 156.348C145.611 157.346 140.511 158.815 136.451 156.187" stroke="black" stroke-width="1.038" stroke-linecap="round" stroke-linejoin="round"/>
<path d="M102.431 192.914C102.431 192.914 100.293 194.313 96.8809 194.383C93.4682 194.453 92.6791 193.589 92.6791 193.589C88.1952 194.938 84.0063 194.099 84.0063 194.099C72.8044 196.42 73.9333 187.514 75.2044 184.153C76.5897 180.491 81.3241 178.943 81.3241 178.943C77.3688 170.985 77.2297 164.022 77.2297 164.022C74.6399 160.943 73.6123 157.515 73.6123 157.515L141.662 137.086C141.662 137.086 143.314 146.071 141.431 155.212C140.165 161.362 135.783 166.106 135.783 166.106C133.429 176.479 133.878 185.578 133.559 188.475C133.241 191.351 132.433 192.841 127.558 193.448C120.99 194.263 117.003 192.914 117.003 192.914C117.003 192.914 114.979 193.542 112.201 193.589C109.423 193.636 108.106 192.984 108.106 192.984C108.106 192.984 104.626 194.255 102.431 192.914Z" fill="white"/>
<path d="M136.806 100.841C144.714 96.436 150.927 96.365 150.927 96.365C150.927 96.365 150.785 100.757 146.798 104.962C146.798 104.962 149.716 106.004 151.694 109.958C151.694 109.958 145.338 113.321 137.644 107.59L136.809 100.841H136.806Z" fill="#4CD8E5" stroke="black" stroke-width="1.038" stroke-linecap="round" stroke-linejoin="round"/>
<path d="M136.561 101.479C136.561 101.479 140.573 103.847 140.832 105.032C141.127 106.379 138.09 110.172 138.09 110.172L122.558 122.155L107.297 110.185L112.345 104.785L136.563 101.482L136.561 101.479Z" fill="#4CD8E5" stroke="black" stroke-width="1.038" stroke-linecap="round" stroke-linejoin="round"/>
<path d="M123.797 107.731C123.797 107.731 127.61 104.712 130.999 103.131" stroke="black" stroke-width="1.038" stroke-linecap="round" stroke-linejoin="round"/>
<path d="M154.805 69.5C154.805 69.5 156.847 75.2131 155.343 83.8621C153.859 92.3851 147.504 98.4231 140.092 102.047C134.863 104.602 128.065 104.154 128.065 104.154C128.065 104.154 117.075 109.935 97.7292 108.442C87.7675 107.674 80.4303 103.042 80.4303 103.042C80.4303 103.042 71.7069 100.58 64.97 95.9381C59.8162 92.3851 55.2934 87.1491 55.0142 79.6681C54.8015 73.9861 57.2274 68.4921 57.2274 68.4921C57.2274 68.4921 53.7431 60.5571 56.2852 47.8401C56.7214 45.665 57.3387 43.5308 58.1307 41.4601C58.2649 41.3381 66.9973 33.5621 88.8547 30.5061C104.931 28.2581 121.546 31.0481 131.876 34.8151C146.937 40.3091 154.629 48.1031 154.629 48.1031C154.83 49.2051 155.001 50.3271 155.128 51.4631C156.539 64.0371 154.805 69.5 154.805 69.5Z" fill="white"/>
<path d="M148.352 30.079C148.352 30.079 152.808 38.193 154.631 48.102C154.631 48.102 146.939 40.308 131.877 34.815C121.547 31.048 104.933 28.258 88.8558 30.505C66.9994 33.562 58.267 41.337 58.1328 41.457C62.2203 30.73 69.6995 24.608 69.6995 24.608C69.6995 24.608 68.99 17.888 73.0883 11.086C77.5127 3.74496 85.2762 4.43796 89.7959 8.71796C93.7989 12.508 95.3055 17.528 95.3055 17.528C95.3055 17.528 101.093 16.533 108.106 17.054C115.12 17.574 121.051 19.612 121.051 19.612C121.051 19.612 125.664 12.649 131.877 10.091C138.09 7.53496 143.361 9.66296 146.045 14.923C149.574 21.836 148.352 30.079 148.352 30.079Z" fill="white"/>
<path d="M58.1337 41.457C62.2211 30.73 69.7004 24.608 69.7004 24.608C69.7004 24.608 68.9908 17.888 73.0892 11.086C77.5136 3.74496 85.277 4.43796 89.7968 8.71796C93.7998 12.508 95.3064 17.528 95.3064 17.528C95.3064 17.528 101.094 16.533 108.107 17.054C115.121 17.574 121.051 19.612 121.051 19.612C121.051 19.612 125.665 12.649 131.878 10.091C138.091 7.53496 143.362 9.66296 146.046 14.923C149.575 21.836 148.353 30.079 148.353 30.079C148.353 30.079 152.809 38.193 154.631 48.102C154.833 49.204 155.004 50.327 155.13 51.462C156.542 64.037 154.5 69.5 154.5 69.5C154.5 69.5 156.847 75.213 155.343 83.861C153.859 92.385 147.504 98.423 140.092 102.047C134.863 104.602 128.065 104.154 128.065 104.154C128.065 104.154 117.075 109.935 97.7292 108.442C87.7675 107.673 80.4303 103.042 80.4303 103.042C80.4303 103.042 71.7069 100.58 64.97 95.938C59.8162 92.385 55.2934 87.148 55.0142 79.668C54.8015 73.986 57.2274 68.492 57.2274 68.492C57.2274 68.492 53.7431 60.557 56.2852 47.839C56.7213 45.6639 57.3387 43.5297 58.1307 41.459" stroke="black" stroke-width="1.038" stroke-linecap="round" stroke-linejoin="round"/>
<path d="M74.2531 22.6549C74.2531 22.6549 78.0991 20.9479 82.7262 19.5649C87.3503 18.1789 91.233 17.6819 91.233 17.6819C91.233 17.6819 89.8914 13.4069 86.2442 11.1559C83.078 9.20294 78.431 9.63994 75.866 13.9049C73.2146 18.3099 74.2531 22.6549 74.2531 22.6549ZM136.019 22.8569C140.679 24.6809 144.373 27.2619 144.373 27.2619C144.373 27.2619 145.197 23.0239 142.937 18.4759C140.912 14.3989 137.826 13.0599 133.922 14.2839C128.861 15.8709 126.767 19.8489 126.767 19.8489C126.767 19.8489 131.357 21.0339 136.016 22.8569H136.019Z" fill="#FEE2E2"/>
<path d="M110.248 63.8859C111.247 63.8859 112.205 63.4866 112.911 62.7758C113.618 62.0651 114.014 61.1011 114.014 60.0959C114.014 59.0907 113.618 58.1267 112.911 57.416C112.205 56.7052 111.247 56.3059 110.248 56.3059C109.249 56.3059 108.291 56.7052 107.585 57.416C106.878 58.1267 106.481 59.0907 106.481 60.0959C106.481 61.1011 106.878 62.0651 107.585 62.7758C108.291 63.4866 109.249 63.8859 110.248 63.8859Z" fill="black"/>
<path d="M108.686 59.0299C109.045 58.4979 109.074 57.8879 108.751 57.6669C108.429 57.4469 107.876 57.6989 107.517 58.2299C107.157 58.7619 107.128 59.3719 107.451 59.5929C107.774 59.8139 108.326 59.5619 108.686 59.0299Z" fill="white"/>
<path d="M96.2269 64.092C98.3805 64.092 100.174 64.475 100.674 65.39C101.803 67.45 99.0245 69.292 97.5159 70.204C95.8384 71.217 94.5673 70.613 93.5626 69.99C92.7884 69.51 90.8108 67.38 91.5154 65.793C92.0799 64.519 94.0754 64.095 96.226 64.095L96.2269 64.092Z" fill="black"/>
<path d="M93.5799 66.2959C94.0966 66.0659 94.3958 65.6089 94.2497 65.2779C94.1036 64.9469 93.5669 64.8649 93.0502 65.0959C92.5344 65.3259 92.2353 65.7819 92.3804 66.1139C92.5274 66.4439 93.0641 66.5259 93.5799 66.2959Z" fill="white"/>
<path d="M107.595 77.1009C107.595 77.1009 106.6 84.7369 100.695 88.1229C97.4256 89.9959 92.715 88.5239 90.1282 84.8529C87.7749 81.5169 87.8057 77.6559 87.8057 77.6559C89.0479 78.0939 90.4392 78.2739 91.751 78.1039C94.8815 77.7039 96.0094 76.2339 96.0094 76.2339C96.0094 76.2339 97.0579 78.0539 100.34 78.5079C103.6 78.9559 105.997 78.2319 107.595 77.1009Z" fill="#E75C5C"/>
<path d="M95.6573 69.2C95.6573 69.2 95.1624 70.527 95.1624 72.61C95.1624 74.695 96.0091 76.234 96.0091 76.234M96.0091 76.234C96.0091 76.234 97.0575 78.055 100.34 78.508C103.6 78.956 105.997 78.232 107.594 77.102C108.145 76.7151 108.636 76.2468 109.049 75.713C110.118 74.317 110.131 72.895 110.131 72.895M96.0091 76.234C96.0091 76.234 94.8801 77.704 91.7507 78.104C90.4389 78.274 89.0476 78.094 87.8053 77.656C86.3812 77.156 85.1569 76.315 84.4791 75.265C83.2071 73.298 84.0309 71.357 84.0309 71.357" stroke="black" stroke-width="1.038" stroke-linecap="round" stroke-linejoin="round"/>
<path d="M87.8046 77.6561C87.8046 77.6561 87.7738 81.517 90.1271 84.854C92.713 88.524 97.4245 89.9961 100.694 88.1241C106.599 84.7371 107.594 77.1021 107.594 77.1021M96.8263 93.1321C96.8263 93.1321 99.0861 93.6821 101.468 92.4811M73.6104 157.515C73.6104 157.515 74.6379 160.946 77.2267 164.025C77.2267 164.025 77.3689 170.988 81.3212 178.944C81.3212 178.944 76.5867 180.491 75.2024 184.154C73.9303 187.517 72.8024 196.421 84.0044 194.1C84.0044 194.1 88.1932 194.941 92.6762 193.592C92.6762 193.592 93.4662 194.456 96.8779 194.386C100.291 194.316 102.428 192.917 102.428 192.917" stroke="black" stroke-width="1.038" stroke-linecap="round" stroke-linejoin="round"/>
<path d="M141.662 137.086C141.662 137.086 143.314 146.071 141.429 155.212C140.163 161.36 135.78 166.106 135.78 166.106C133.427 176.479 133.875 185.578 133.557 188.472C133.238 191.351 132.43 192.838 127.555 193.445C120.99 194.263 117.001 192.911 117.001 192.911C117.001 192.911 114.977 193.539 112.198 193.586C109.421 193.633 108.103 192.982 108.103 192.982C108.103 192.982 104.502 194.297 102.315 192.838C100.37 191.544 99.8941 185.779 101.292 182.572C103.128 178.357 106.586 178.31 106.586 178.31C106.162 172.379 106.267 167.44 106.267 167.44C106.267 167.44 96.6663 168.185 89.9811 165.202M84.0064 194.099C84.0064 194.099 81.5607 192.95 81.7366 188.795M92.6792 193.589C92.6792 193.589 91.1627 191.778 91.7262 188.579" stroke="black" stroke-width="1.038" stroke-linecap="round" stroke-linejoin="round"/>
<path d="M108.106 192.987C108.106 192.987 106.059 191.708 106.729 187.587M117.002 192.914C117.002 192.914 115.8 190.817 116.368 188.011M80.6875 60.227C80.6875 60.227 82.0222 58.601 85.4418 58.072C89.1128 57.504 91.3022 59.067 91.3022 59.067C91.3022 59.067 90.6562 58.038 89.573 57.397" stroke="black" stroke-width="1.038" stroke-linecap="round" stroke-linejoin="round"/>
<path d="M102.994 86.3899C102.994 86.3899 99.7571 84.4999 95.4858 84.9629C92.0423 85.3349 90.2615 88.2329 89.8033 90.2019C89.2836 92.4419 90.986 94.5879 93.0679 94.8379C95.1519 95.0859 97.215 94.5359 98.8568 92.1919C100.11 90.4019 100.886 86.9349 102.994 86.3899Z" fill="#FF6B6B" stroke="black" stroke-width="1.038" stroke-linecap="round" stroke-linejoin="round"/>
<path d="M98.386 84.981C98.386 84.981 95.9622 86.721 94.4814 90.042" stroke="black" stroke-width="1.038" stroke-linecap="round" stroke-linejoin="round"/>
<path d="M111.99 110.325C111.99 110.325 117.82 108.184 121.592 110.362C125.9 112.849 125.721 118.247 125.721 118.247L118.93 126.606L108.012 124.9L111.988 110.325H111.99ZM56.4498 114.683C56.4498 114.683 62.2804 112.542 66.0518 114.72C70.3599 117.207 70.181 122.605 70.181 122.605L63.3905 130.964L52.4707 129.258L56.4478 114.683H56.4498Z" fill="#D2D9FF" stroke="black" stroke-width="1.038" stroke-linecap="round" stroke-linejoin="round"/>
<path d="M96.4926 104.214L104.42 104.732C104.42 104.732 105.727 100.551 110.648 99.9159C114.674 99.3949 117.151 102.083 117.319 104.782C117.64 109.953 113.648 112.099 113.648 112.099C113.648 112.099 115.427 113.602 115.026 117.64C114.601 121.902 109.447 123.962 109.447 123.962L90.3062 122.233C90.3062 122.233 86.3986 121.352 84.2998 117.017C82.1999 112.683 85.6434 109.427 85.6434 109.427C85.6434 109.427 83.3 106.814 85.0888 103.146C86.5676 100.114 90.2068 98.7859 93.1375 100.374C95.8198 101.83 96.4906 104.211 96.4906 104.211L96.4926 104.214Z" fill="#D2D9FF" stroke="black" stroke-width="1.038" stroke-linecap="round" stroke-linejoin="round"/>
<path d="M67.4386 98.425L74.6744 97.715C74.6744 97.715 75.063 92.207 80.3231 90.787C84.6262 89.626 88.0071 93.739 88.5844 96.649C89.6895 102.226 86.3603 105.909 86.3603 105.909C86.3603 105.909 88.8558 106.691 89.0426 111.286C89.2314 115.881 84.6182 119.218 84.6182 119.218L61.8833 118.841C61.8833 118.841 57.5057 118.463 54.5889 114.058C51.6702 109.653 54.9397 105.605 54.9397 105.605C54.9397 105.605 52.2943 101.369 53.7054 97.115C54.8702 93.598 59.3362 91.83 63.1673 93.742C66.9984 95.654 67.4386 98.431 67.4386 98.431V98.425Z" fill="#D2D9FF" stroke="black" stroke-width="1.038" stroke-linecap="round" stroke-linejoin="round"/>
<path d="M76.2867 114.577C76.2867 114.577 84.3364 114.009 92.1486 114.814C92.1486 114.814 92.3374 111.167 98.3151 110.552C104.293 109.937 107.521 113.321 108.246 116.33C109.638 122.1 104.715 125.187 104.715 125.187C104.715 125.187 109.051 126.06 109.121 130.764C109.193 135.469 102.186 138.571 102.186 138.571L68.404 136.67C68.404 136.67 62.1183 140.721 59.8584 134.516C57.5985 128.31 64.1426 125.328 64.1426 125.328C64.1426 125.328 57.0271 120.086 60.3762 113.772C62.5893 109.604 67.5315 108.278 71.4848 109.747C75.438 111.217 76.2867 114.58 76.2867 114.58V114.577Z" fill="#D2D9FF" stroke="black" stroke-width="1.038" stroke-linecap="round" stroke-linejoin="round"/>
<path d="M57.7676 130.751L129.289 133.617C129.289 133.617 131.689 146.097 122.322 153.272C113.631 159.93 94.6919 162.295 81.9843 159.667C69.2747 157.038 62.9691 153.628 59.8625 147.116C56.6784 140.439 57.7676 130.751 57.7676 130.751Z" fill="#FCCF7A" stroke="black" stroke-width="1.038" stroke-linecap="round" stroke-linejoin="round"/>
<path d="M56.6368 102.39C56.3414 102.389 56.0572 102.276 55.8415 102.073C55.6257 101.87 55.4944 101.592 55.4741 101.296C55.1968 97.1699 57.6405 95.4429 57.7449 95.3699C57.9989 95.1989 58.3096 95.1354 58.6098 95.1928C58.9101 95.2503 59.1758 95.4243 59.3498 95.6771C59.5238 95.93 59.592 96.2415 59.5397 96.5445C59.4875 96.8475 59.319 97.1177 59.0706 97.2969C58.9841 97.3629 57.6147 98.4359 57.7965 101.137C57.8071 101.291 57.7873 101.445 57.7384 101.591C57.6895 101.737 57.6124 101.872 57.5116 101.988C57.4108 102.104 57.2882 102.198 57.1508 102.267C57.0135 102.335 56.8641 102.375 56.7113 102.385H56.6318L56.6368 102.39ZM57.8611 106.051C58.2044 106.051 58.5337 105.914 58.7764 105.669C59.0192 105.425 59.1555 105.094 59.1555 104.748C59.1555 104.403 59.0192 104.072 58.7764 103.827C58.5337 103.583 58.2044 103.446 57.8611 103.446C57.5178 103.446 57.1886 103.583 56.9459 103.827C56.7031 104.072 56.5667 104.403 56.5667 104.748C56.5667 105.094 56.7031 105.425 56.9459 105.669C57.1886 105.914 57.5178 106.051 57.8611 106.051ZM78.362 99.9759C78.3252 99.9759 78.2924 99.9759 78.2557 99.9709C77.9478 99.9427 77.6636 99.7927 77.4655 99.5538C77.2674 99.3149 77.1717 99.0067 77.1993 98.6969C77.5719 94.5449 80.2413 92.5389 80.3556 92.4549C80.6045 92.2708 80.9159 92.1938 81.2213 92.2408C81.5266 92.2877 81.801 92.4549 81.9839 92.7054C82.1668 92.9559 82.2433 93.2692 82.1966 93.5765C82.15 93.8838 81.9839 94.1598 81.7349 94.3439C81.6445 94.4139 79.7931 95.8629 79.5188 98.9079C79.4927 99.1991 79.3592 99.47 79.1445 99.6671C78.9299 99.8642 78.6496 99.9733 78.359 99.9729L78.362 99.9759ZM64.2373 117.995C64.0478 117.995 63.8611 117.949 63.6935 117.86C63.5259 117.771 63.3824 117.642 63.2757 117.485C63.1689 117.327 63.1021 117.146 63.0811 116.956C63.0601 116.767 63.0855 116.575 63.1551 116.398C63.2127 116.252 64.597 112.811 68.3387 111.92C68.6394 111.849 68.9559 111.901 69.2185 112.065C69.4811 112.228 69.6683 112.49 69.7389 112.793C69.8095 113.095 69.7578 113.414 69.5951 113.678C69.4324 113.942 69.1721 114.131 68.8713 114.202C66.3401 114.804 65.3613 117.161 65.3195 117.263C65.2322 117.48 65.0826 117.666 64.8898 117.796C64.697 117.927 64.4699 117.997 64.2373 117.998V117.995ZM64.0972 121.394C64.4651 121.394 64.818 121.247 65.0782 120.985C65.3383 120.723 65.4845 120.368 65.4845 119.998C65.4845 119.628 65.3383 119.273 65.0782 119.011C64.818 118.749 64.4651 118.602 64.0972 118.602C63.7292 118.602 63.3764 118.749 63.1162 119.011C62.856 119.273 62.7098 119.628 62.7098 119.998C62.7098 120.368 62.856 120.723 63.1162 120.985C63.3764 121.247 63.7292 121.394 64.0972 121.394ZM95.1869 117.289C94.9907 117.288 94.7979 117.238 94.6262 117.143C94.4545 117.047 94.3095 116.91 94.2047 116.743C94.0999 116.576 94.0386 116.385 94.0264 116.188C94.0143 115.991 94.0518 115.794 94.1354 115.616C94.203 115.476 95.8129 112.17 100.556 112.365C100.865 112.378 101.156 112.513 101.365 112.742C101.574 112.971 101.685 113.274 101.672 113.584C101.659 113.895 101.524 114.188 101.297 114.398C101.07 114.609 100.769 114.72 100.46 114.707C97.24 114.577 96.2502 116.598 96.2403 116.619C96.0415 117.041 95.6211 117.289 95.1869 117.289ZM108.154 106.772C107.972 106.773 107.792 106.731 107.629 106.649C107.466 106.567 107.324 106.448 107.216 106.301C107.107 106.153 107.034 105.983 107.003 105.802C106.973 105.621 106.984 105.436 107.038 105.261C107.072 105.149 107.9 102.484 111.004 101.349C111.148 101.296 111.3 101.273 111.453 101.279C111.606 101.286 111.756 101.323 111.895 101.388C112.033 101.453 112.158 101.545 112.261 101.658C112.365 101.772 112.445 101.905 112.497 102.049C112.55 102.194 112.573 102.348 112.566 102.501C112.56 102.655 112.523 102.806 112.458 102.946C112.394 103.085 112.302 103.211 112.19 103.315C112.077 103.419 111.945 103.499 111.801 103.552C109.815 104.279 109.275 105.923 109.27 105.939C109.197 106.18 109.05 106.391 108.849 106.541C108.648 106.691 108.404 106.772 108.154 106.772ZM117.293 114.064C116.974 114.064 116.656 113.931 116.425 113.673C116.219 113.44 116.113 113.135 116.13 112.823C116.146 112.512 116.285 112.22 116.516 112.011C117.143 111.479 117.919 111.155 118.737 111.084C118.889 111.071 119.043 111.089 119.189 111.136C119.334 111.184 119.469 111.26 119.586 111.36C119.702 111.46 119.798 111.583 119.867 111.721C119.936 111.858 119.977 112.008 119.988 112.162C120 112.315 119.981 112.47 119.934 112.616C119.886 112.762 119.811 112.898 119.711 113.015C119.611 113.131 119.49 113.227 119.353 113.297C119.217 113.366 119.068 113.408 118.916 113.42C118.606 113.452 118.31 113.57 118.064 113.762C117.841 113.962 117.567 114.061 117.293 114.061V114.064Z" fill="white"/>
<path d="M139.809 107.447C142.61 108.465 145.564 113.722 145.704 122.439C145.847 131.152 142.468 139.254 133.148 145.219C125.635 150.031 117.426 151.093 108.013 150.619C101.717 150.301 99.1644 147.09 99.4466 145.599C99.4466 145.599 93.3766 143.562 91.87 139.775C90.0513 135.206 93.2812 133.192 93.2812 133.192C93.2812 133.192 89.5942 131.918 89.8218 128.479C90.0345 125.283 93.3398 122.631 99.6364 121.8C106.274 120.925 117.286 122.439 117.286 122.439C117.286 122.439 121.073 119.612 123.875 115.759C128.628 109.223 135.628 105.928 139.809 107.447ZM59.1783 123.043C59.1783 123.043 59.6364 119.313 57.2364 116.721C55.3651 114.699 52.1522 112.743 48.1989 115.194C44.7823 117.312 41.5276 126.278 45.0228 131.178C45.0228 131.178 43.2389 134.966 45.7631 139.775C48.0568 144.143 50.8812 144.287 50.8812 144.287C50.8812 144.287 51.5152 147.236 56.0717 147.483C60.6253 147.73 63.9803 142.51 64.1562 138.425C64.3321 134.341 61.8625 132.812 61.8625 132.812C61.8625 132.812 64.0508 130.822 63.3463 126.987C62.6397 123.15 59.1813 123.043 59.1813 123.043H59.1783Z" fill="white" stroke="black" stroke-width="1.038" stroke-linecap="round" stroke-linejoin="round"/>
</g>
</svg>
