<svg width="200" height="200" viewBox="0 0 200 200" fill="none" xmlns="http://www.w3.org/2000/svg">
<mask id="mask0_492_3553" style="mask-type:luminance" maskUnits="userSpaceOnUse" x="16" y="7" width="169" height="186">
<path d="M16 7H184.069V192.49H16V7Z" fill="white"/>
</mask>
<g mask="url(#mask0_492_3553)">
<path d="M51.2754 101.527C51.2754 101.527 54.1914 104.986 58.9254 107.961L70.5834 106.686L63.3874 101.874C63.3874 101.874 56.3274 100.919 51.2754 101.523V101.527Z" fill="#4CD8E5" stroke="black" stroke-width="1.002" stroke-linecap="round" stroke-linejoin="round"/>
<path d="M35.1872 158.537C35.1872 158.537 23.8642 157.749 19.6772 158.113C15.4862 158.477 15.9872 162.1 18.0672 164.307C21.0732 167.496 26.4452 169.874 31.9722 170.802C37.7392 171.774 45.2082 171.106 45.2082 171.106L35.1912 158.537H35.1872Z" fill="white" stroke="black" stroke-width="1.002" stroke-linecap="round" stroke-linejoin="round"/>
<path d="M51.8233 114.943C51.8233 114.943 44.0363 122.456 41.1683 133.065C41.1683 133.065 34.3393 140.351 32.9703 148.545C31.6043 156.743 32.9333 163.595 39.2543 168.794C45.7493 174.137 53.2193 174.865 53.2193 174.865L51.8233 114.943Z" fill="white" stroke="black" stroke-width="1.002" stroke-linecap="round" stroke-linejoin="round"/>
<path d="M152.3 82.827C152.514 96.607 144.41 101.891 144.41 101.891L73.1943 108.205C73.1943 108.205 56.6483 105.657 50.1843 94.728C44.1363 84.51 47.4493 71.598 47.4493 71.598C47.4493 71.598 43.7223 64.882 44.8683 52.477C44.8683 52.477 54.8283 43.274 78.9013 38.021C96.9563 34.081 115.111 34.255 123.827 35.35C137.444 37.06 146.316 40.426 146.527 40.506H146.53C147.508 42.422 148.306 44.493 148.72 46.643C151.028 58.604 148.173 66.799 148.173 66.799C148.173 66.799 152.157 73.447 152.3 82.827Z" fill="white"/>
<path d="M115.211 20.8649C115.211 20.8649 119.943 12.4929 126.498 8.93989C133.056 5.38689 135.954 9.01689 137.063 13.3109C138.976 20.7349 138.108 29.6129 138.108 29.6129C138.108 29.6129 143.304 34.2019 146.526 40.5059C146.316 40.4259 137.444 37.0599 123.826 35.3499C115.111 34.2549 96.9562 34.0809 78.9012 38.0219C54.8282 43.2739 44.8672 52.4769 44.8672 52.4769C44.9112 51.9999 44.9612 51.5119 45.0212 51.0149C46.6612 37.2939 54.4312 31.5869 54.4312 31.5869C54.4312 31.5869 54.1272 20.9619 58.1982 13.7649C61.5202 7.88889 66.2652 7.80489 71.0372 11.3079C77.3682 15.9529 80.1632 22.4779 80.1632 22.4779C83.9832 21.3479 89.4192 20.1599 96.3552 19.6859C104.098 19.1619 110.994 20.0699 115.211 20.8649Z" fill="white"/>
<path d="M73.5879 24.9678C73.5879 24.9678 75.8379 23.7588 80.1629 22.4798C83.9829 21.3478 89.4189 20.1598 96.3549 19.6848C104.099 19.1608 110.994 20.0688 115.211 20.8648C117.936 21.3778 119.546 21.8428 119.546 21.8428" stroke="black" stroke-width="1.002" stroke-linecap="round" stroke-linejoin="round"/>
<path d="M146.53 40.5059C147.508 42.4219 148.306 44.4929 148.72 46.6429C151.028 58.6039 148.173 66.7989 148.173 66.7989C148.173 66.7989 152.157 73.4469 152.3 82.8269C152.514 96.6069 144.41 101.89 144.41 101.89L73.1943 108.205C73.1943 108.205 56.6483 105.657 50.1843 94.7279C44.1363 84.5099 47.4493 71.5969 47.4493 71.5969C47.4493 71.5969 43.7223 64.8819 44.8683 52.4769C44.9113 51.9989 44.9613 51.5119 45.0213 51.0139C46.6613 37.2939 54.4313 31.5859 54.4313 31.5859C54.4313 31.5859 54.1273 20.9609 58.1983 13.7659C61.5203 7.8879 66.2653 7.8049 71.0373 11.3069C77.3683 15.9519 80.1633 22.4769 80.1633 22.4769" stroke="black" stroke-width="1.002" stroke-linecap="round" stroke-linejoin="round"/>
<path d="M115.211 20.8649C115.211 20.8649 119.943 12.4929 126.498 8.93989C133.056 5.38689 135.955 9.01689 137.063 13.3109C138.977 20.7349 138.108 29.6129 138.108 29.6129C138.108 29.6129 143.304 34.2019 146.527 40.5059" stroke="black" stroke-width="1.002" stroke-linecap="round" stroke-linejoin="round"/>
<path d="M103.097 70.8218C103.578 70.8298 104.057 70.7418 104.504 70.563C104.952 70.3842 105.359 70.1182 105.702 69.7803C106.046 69.4425 106.319 69.0397 106.505 68.5954C106.691 68.151 106.787 67.6741 106.787 67.1923C106.787 66.7105 106.691 66.2336 106.505 65.7893C106.319 65.3449 106.046 64.9421 105.702 64.6043C105.359 64.2665 104.952 64.0004 104.504 63.8216C104.057 63.6428 103.578 63.5548 103.097 63.5628C102.134 63.5628 101.211 63.9453 100.53 64.626C99.8492 65.3068 99.4668 66.2301 99.4668 67.1928C99.4668 68.1556 99.8492 69.0789 100.53 69.7596C101.211 70.4404 102.134 70.8218 103.097 70.8218ZM123.7 70.3478C124.17 70.359 124.638 70.276 125.076 70.1037C125.514 69.9314 125.913 69.6732 126.25 69.3444C126.587 69.0156 126.854 68.6228 127.037 68.1891C127.22 67.7553 127.314 67.2895 127.314 66.8188C127.314 66.3482 127.22 65.8823 127.037 65.4486C126.854 65.0148 126.587 64.622 126.25 64.2932C125.913 63.9644 125.514 63.7062 125.076 63.5339C124.638 63.3616 124.17 63.2786 123.7 63.2898C122.778 63.3118 121.902 63.6932 121.258 64.3526C120.614 65.012 120.254 65.8972 120.254 66.8188C120.254 67.7405 120.614 68.6256 121.258 69.285C121.902 69.9444 122.778 70.3259 123.7 70.3478ZM115.843 72.8398C118.788 72.8398 120.978 73.0498 121.489 74.6928C121.913 76.0578 120.244 79.0928 118.758 80.2488C117.272 81.4008 115.298 80.9168 114.113 80.2488C112.927 79.5808 109.742 77.6978 109.528 75.7238C109.314 73.7508 112.897 72.8398 115.843 72.8398Z" fill="black"/>
<path d="M112.878 75.5579C113.734 75.3879 114.339 74.8099 114.231 74.2679C114.123 73.7249 113.342 73.4229 112.487 73.5929C111.631 73.7629 111.025 74.3419 111.133 74.8839C111.241 75.4269 112.022 75.7289 112.878 75.5579ZM102.042 65.7599C102.716 65.4019 103.116 64.8359 102.935 64.4959C102.755 64.1559 102.061 64.1699 101.387 64.5279C100.713 64.8859 100.313 65.4519 100.493 65.7919C100.674 66.1319 101.367 66.1179 102.042 65.7599ZM122.581 65.5829C123.223 65.2129 123.591 64.6479 123.403 64.3229C123.215 63.9969 122.542 64.0329 121.9 64.4029C121.258 64.7739 120.89 65.3389 121.078 65.6649C121.266 65.9899 121.939 65.9549 122.581 65.5829Z" fill="white"/>
<path d="M116.481 78.8499C116.481 78.8499 118.03 82.4329 117.452 87.4109M117.452 87.4109C117.452 87.4109 116.527 88.8069 115.365 89.4449M117.452 87.4109C117.452 87.4109 118.598 89.0819 120.648 89.4689" stroke="black" stroke-width="1.002" stroke-linecap="round" stroke-linejoin="round"/>
<path d="M95.2871 76.0279C95.2509 76.0277 95.2148 76.0223 95.1801 76.0119C95.0965 75.983 95.0277 75.9222 94.9889 75.8427C94.9501 75.7632 94.9444 75.6715 94.9731 75.5879C95.3631 74.4379 96.0311 73.1099 96.0611 73.0569C96.1029 72.9817 96.1722 72.9257 96.2544 72.9005C96.3366 72.8753 96.4254 72.8828 96.5022 72.9216C96.579 72.9604 96.6377 73.0273 96.6662 73.1085C96.6947 73.1896 96.6908 73.2786 96.6551 73.3569C96.6491 73.3699 95.9781 74.6989 95.6041 75.8049C95.5818 75.8712 95.5392 75.9289 95.4823 75.9696C95.4254 76.0104 95.3571 76.0321 95.2871 76.0319V76.0279ZM97.4701 76.2319C97.4177 76.2317 97.3661 76.2192 97.3194 76.1955C97.2727 76.1718 97.2322 76.1374 97.2011 76.0953C97.17 76.0531 97.1492 76.0042 97.1403 75.9526C97.1315 75.901 97.1348 75.848 97.1501 75.7979C97.6071 74.3379 98.1651 73.1029 98.1881 73.0489C98.2651 72.8819 98.4621 72.8059 98.6291 72.8819C98.7961 72.9589 98.8731 73.1559 98.7961 73.3229C98.4107 74.1941 98.0742 75.0861 97.7881 75.9949C97.767 76.0624 97.7249 76.1215 97.6678 76.1634C97.6108 76.2053 97.5419 76.2279 97.4711 76.2279L97.4701 76.2319ZM99.3601 76.4829C99.3341 76.4829 99.3041 76.4829 99.2771 76.4729C99.2344 76.4622 99.1942 76.4431 99.1589 76.4167C99.1236 76.3903 99.094 76.3571 99.0716 76.3191C99.0493 76.2812 99.0347 76.2391 99.0288 76.1955C99.0229 76.1518 99.0257 76.1074 99.0371 76.0649C99.3541 74.8129 99.7911 73.5679 99.7971 73.5549C99.8267 73.4711 99.8883 73.4024 99.9685 73.3641C100.049 73.3257 100.141 73.3208 100.225 73.3504C100.308 73.3799 100.377 73.4416 100.415 73.5218C100.454 73.6019 100.459 73.6941 100.429 73.7779C100.425 73.7909 99.9991 75.0099 99.6871 76.2319C99.6684 76.3033 99.6265 76.3666 99.5681 76.4118C99.5097 76.457 99.438 76.4816 99.3641 76.4819L99.3601 76.4829ZM125.65 75.2959C125.626 75.2959 125.603 75.2959 125.58 75.2899C125.537 75.2812 125.496 75.2641 125.46 75.2395C125.424 75.2149 125.393 75.1834 125.369 75.1467C125.345 75.11 125.329 75.069 125.321 75.0259C125.313 74.9828 125.314 74.9386 125.323 74.8959C125.566 73.7399 125.95 72.4919 125.967 72.4379C125.995 72.3556 126.054 72.2875 126.132 72.248C126.209 72.2085 126.299 72.2008 126.382 72.2264C126.465 72.2521 126.535 72.3091 126.576 72.3853C126.618 72.4616 126.628 72.5511 126.605 72.6349C126.601 72.6489 126.211 73.9109 125.974 75.0329C125.958 75.1076 125.916 75.1746 125.857 75.2224C125.797 75.2703 125.723 75.2962 125.646 75.2959H125.65ZM127.32 75.7539C127.3 75.7539 127.28 75.7539 127.26 75.7479C127.173 75.732 127.095 75.6824 127.045 75.6097C126.994 75.537 126.974 75.4472 126.989 75.3599C127.233 73.9849 127.827 72.2549 127.851 72.1849C127.883 72.105 127.944 72.0405 128.022 72.0046C128.1 71.9688 128.189 71.9643 128.27 71.9923C128.351 72.0202 128.419 72.0783 128.458 72.1546C128.498 72.2309 128.506 72.3194 128.482 72.4019C128.475 72.4179 127.881 74.1549 127.644 75.4769C127.63 75.5535 127.589 75.6228 127.529 75.6727C127.469 75.7227 127.394 75.7503 127.316 75.7509L127.32 75.7539Z" fill="#FF6B6B"/>
<path d="M50.7286 140.261L50.8486 177.844C50.8486 177.844 69.1846 187.254 77.9266 191.989L179.439 188.102C179.439 188.102 180.958 166.487 181.139 148.152L50.7256 140.258L50.7286 140.261Z" fill="#ECC9A0" stroke="black" stroke-width="1.002" stroke-linecap="round" stroke-linejoin="round"/>
<path d="M79.5092 156.653L78.6572 188.954" stroke="black" stroke-width="1.002" stroke-linecap="round" stroke-linejoin="round"/>
<path d="M103.457 173.624C106.403 173.774 109.044 176.205 109.468 178.512C109.892 180.82 109.498 182.61 107.859 182.793C105.818 183.02 105.217 181.641 103.063 181.608C100.91 181.578 98.2054 183.398 96.8094 181.822C95.4134 180.245 96.1114 177.39 97.7514 175.811C99.0974 174.515 100.512 173.474 103.457 173.624Z" fill="#9A7D6B"/>
<path d="M129.503 75.5399C129.483 75.5399 129.467 75.5399 129.447 75.5369C129.36 75.5219 129.283 75.4732 129.231 75.4013C129.18 75.3294 129.159 75.2401 129.173 75.1529C129.356 74.0879 129.74 72.6089 129.757 72.5449C129.78 72.4593 129.835 72.3862 129.911 72.3413C129.988 72.2963 130.079 72.2832 130.164 72.3049C130.341 72.3509 130.452 72.5349 130.405 72.7119C130.402 72.7289 130.011 74.2279 129.834 75.2669C129.821 75.3442 129.781 75.4145 129.721 75.4652C129.662 75.5159 129.586 75.5438 129.507 75.5439L129.503 75.5399Z" fill="#FF6B6B"/>
<path d="M84.942 104.472C67.404 104.575 52.889 104.679 51.64 104.745C49.089 104.882 48.665 106.809 48.665 108.389V142.325C48.665 142.325 70.643 151.919 80.721 154.834L182.173 151.738C182.173 151.738 183.509 127.876 183.569 114.64L150.36 104.138C150.36 104.138 148.614 104.144 145.582 104.161C143.441 104.171 140.663 104.181 137.411 104.198C134.93 104.211 132.175 104.225 129.213 104.238L120.501 104.281C117.963 104.295 115.339 104.308 112.667 104.321C110.203 104.335 107.695 104.345 105.171 104.358C102.549 104.375 99.911 104.388 97.287 104.401C93.097 104.425 88.939 104.448 84.942 104.472Z" fill="#ECC9A0" stroke="black" stroke-width="1.002" stroke-linecap="round" stroke-linejoin="round"/>
<path d="M61.8374 121.588C62.6164 122.32 61.9744 124.083 60.9464 125.365C59.7974 126.794 58.9324 127.038 58.1914 126.517C57.4364 125.989 57.6734 124.083 58.9994 122.57C60.3294 121.057 61.4374 121.208 61.8374 121.585V121.588Z" fill="#9A7D6B"/>
<path d="M51.0967 106.749L81.0127 118.176M83.1527 118.359L180.444 115.671M81.9367 120.47L81.1487 152.329" stroke="black" stroke-width="1.002" stroke-linecap="round" stroke-linejoin="round"/>
<path d="M63.4704 128.471C65.8754 129.53 68.0494 132.655 68.0494 135.921C68.0494 138.729 67.1644 140.255 64.7194 140.135C62.2794 140.011 62.3694 137.54 60.3854 136.655C58.4024 135.771 55.5034 136.893 54.7054 134.672C53.9744 132.625 54.6154 130.795 57.1154 129.085C58.9494 127.833 60.9034 127.346 63.4674 128.474L63.4704 128.471ZM67.7914 120.9C68.9834 121.612 68.3194 123.906 67.1974 125.709C66.3254 127.105 64.5424 128.617 63.3034 127.883C62.0654 127.148 62.6394 124.196 63.5534 122.777C64.8734 120.733 66.3934 120.066 67.7914 120.9ZM71.5684 124.634C72.4164 125.299 72.0724 127.566 71.1344 128.915C70.4864 129.85 69.0274 131.366 67.6544 130.495C66.2824 129.623 67.0044 127.236 67.7444 126.12C68.6164 124.815 70.1594 123.526 71.5684 124.631V124.634ZM157.235 134.478C158.965 133.84 162.007 134.04 164.355 135.496C166.906 137.075 167.41 139.71 166.175 141.173C164.689 142.932 162.562 142.054 160.348 142.659C158.13 143.266 157.736 144.662 155.219 144.084C152.981 143.574 152.798 140.408 153.699 138.134C154.397 136.374 155.506 135.112 157.235 134.478ZM150.908 132.992C152.13 132.26 153.606 132.568 154.237 133.937C154.938 135.463 154.42 136.805 153.078 137.48C151.736 138.151 150.423 137.326 150.086 136.471C149.749 135.616 149.682 133.73 150.911 132.992H150.908ZM155.309 127.633C156.735 127.482 157.676 128.301 157.89 130.184C158.104 132.067 157.406 133.643 156.13 134.071C154.855 134.495 153.632 132.885 153.549 131.125C153.459 129.212 153.883 127.786 155.309 127.636V127.633ZM161.894 128.484C163.423 128.718 164.989 130.578 164.535 132.491C164.195 133.927 162.348 134.101 160.952 133.643C159.556 133.189 158.675 131.913 159.039 130.487C159.403 129.062 160.314 128.24 161.894 128.484ZM98.1854 168.982C99.6654 168.948 100.452 169.92 100.422 171.376C100.392 172.832 99.7314 173.887 98.2984 173.987C96.8624 174.088 95.9444 172.665 96.0814 171.406C96.2184 170.151 96.7054 169.012 98.1854 168.979V168.982ZM105.007 166.307C106.383 166.752 106.707 168.585 105.962 170.498C105.401 171.941 104.216 172.986 102.576 172.562C100.936 172.138 100.906 170.198 101.634 168.311C102.272 166.658 103.454 165.807 105.004 166.307H105.007ZM110.41 169.827C111.502 170.495 111.261 172.014 110.744 173.136C109.996 174.766 108.633 175.123 107.495 174.412C106.356 173.701 106.493 172.258 107.221 170.982C107.949 169.707 109.314 169.163 110.41 169.83V169.827Z" fill="#9A7D6B"/>
<path d="M121.155 100.161C121.025 98.8109 120.758 97.2619 120.07 95.7529C119.152 93.7289 117.482 91.7789 114.387 90.4929C108.984 88.2459 101.775 88.2599 94.8064 92.4199C87.7904 96.6079 84.9424 104.472 84.9424 104.472C88.9394 104.448 93.0964 104.425 97.2874 104.401C97.8344 105.086 98.5724 105.794 99.4204 106.111C101.013 106.702 103.301 106.488 104.62 105.116C104.62 105.116 105.645 106.291 108.316 106.231C110.116 106.191 111.455 105.747 112.347 104.739C112.347 104.739 113.809 106.385 116.968 106.081C118.761 105.911 119.87 105.263 120.501 104.281C121.182 103.229 121.312 101.797 121.155 100.161Z" fill="white"/>
<path d="M142.83 90.9638C139.421 88.2828 132.829 86.9868 127.273 88.7168C121.716 90.4468 120.073 95.7528 120.073 95.7528H120.07C120.758 97.2618 121.025 98.8108 121.155 100.16C121.312 101.797 121.182 103.229 120.501 104.281C120.501 104.281 122.461 106.051 125.012 105.991C126.558 105.951 127.814 105.62 128.652 104.885C128.652 104.885 130.141 105.897 132.418 105.957C133.928 106.001 135.541 105.79 136.643 104.986C136.643 104.986 137.731 106.231 140.947 106.021C142.703 105.904 144.386 105.376 145.582 104.161C146.386 103.343 146.971 102.207 147.201 100.678C147.749 97.0748 146.169 93.5878 142.83 90.9638Z" fill="white"/>
<path d="M84.9424 104.472C84.9424 104.472 87.7904 96.608 94.8064 92.42C101.775 88.26 108.984 88.246 114.387 90.494C117.482 91.779 119.152 93.729 120.07 95.753C120.758 97.263 121.025 98.812 121.155 100.161C121.312 101.797 121.182 103.229 120.501 104.281C119.87 105.263 118.761 105.911 116.968 106.081C113.809 106.385 112.347 104.739 112.347 104.739" stroke="black" stroke-width="1.002" stroke-linecap="round" stroke-linejoin="round"/>
<path d="M112.657 96.731C112.657 96.731 114.113 100.131 113.325 102.862C113.182 103.379 112.96 103.871 112.667 104.321C112.567 104.472 112.46 104.609 112.346 104.739C111.455 105.747 110.116 106.191 108.316 106.232C105.645 106.292 104.619 105.116 104.619 105.116" stroke="black" stroke-width="1.002" stroke-linecap="round" stroke-linejoin="round"/>
<path d="M104.78 97.4118C104.78 97.4118 106.159 100.648 105.551 103.349C105.473 103.702 105.345 104.042 105.17 104.358C105.02 104.642 104.833 104.895 104.619 105.116C103.3 106.488 101.013 106.702 99.4198 106.111C98.5718 105.794 97.8338 105.086 97.2868 104.401C96.6148 103.573 96.2178 102.785 96.2178 102.785M120.073 95.7528C120.073 95.7528 121.716 90.4468 127.273 88.7168C132.829 86.9868 139.421 88.2828 142.83 90.9638C146.169 93.5888 147.749 97.0748 147.201 100.678C146.971 102.207 146.386 103.343 145.582 104.161C144.386 105.376 142.703 105.904 140.947 106.021C137.731 106.231 136.643 104.986 136.643 104.986" stroke="black" stroke-width="1.002" stroke-linecap="round" stroke-linejoin="round"/>
<path d="M137.578 97.1548C137.578 97.1548 138.673 100.404 137.851 103.256C137.655 103.952 137.229 104.561 136.643 104.986C135.541 105.79 133.928 106.001 132.418 105.957C130.141 105.897 128.652 104.886 128.652 104.886" stroke="black" stroke-width="1.002" stroke-linecap="round" stroke-linejoin="round"/>
<path d="M129.019 97.2458C129.019 97.2458 130.295 99.8258 129.717 102.922C129.636 103.389 129.465 103.836 129.213 104.238C129.057 104.479 128.868 104.697 128.652 104.886C127.814 105.62 126.558 105.951 125.012 105.991C122.461 106.051 120.501 104.281 120.501 104.281" stroke="black" stroke-width="1.002" stroke-linecap="round" stroke-linejoin="round"/>
<path d="M62.9335 14.8869C59.7775 18.4399 58.7435 24.6609 58.6825 28.1839C58.6455 30.3709 59.8015 30.9989 61.7785 29.7039C65.3005 27.3959 74.1435 24.0599 76.1365 23.3589C77.2585 22.9649 77.5725 22.4609 76.6845 21.1419C74.9845 18.6209 71.9795 14.6769 68.3065 13.5219C65.7045 12.7029 64.2165 13.4449 62.9335 14.8869ZM128.99 12.6739C127.464 13.3819 123.223 16.7709 121.34 20.3239C120.305 22.2769 121.527 22.9349 122.736 23.1459C124.829 23.5099 131.203 24.5409 134.512 26.9089C135.998 27.9739 137.078 27.7299 137.154 26.3309C137.338 22.9919 136.789 17.5289 135.12 14.0359C133.667 10.9979 131.084 11.6989 128.99 12.6709V12.6739Z" fill="#FEE2E2"/>
<path d="M97.2874 104.401L84.9424 104.471" stroke="black" stroke-width="1.002" stroke-linecap="round" stroke-linejoin="round"/>
</g>
</svg>
