<svg width="200" height="200" viewBox="0 0 200 200" fill="none" xmlns="http://www.w3.org/2000/svg">
<mask id="mask0_492_3589" style="mask-type:luminance" maskUnits="userSpaceOnUse" x="25" y="5" width="152" height="190">
<path d="M25 5H176.239V195H25V5Z" fill="white"/>
</mask>
<g mask="url(#mask0_492_3589)">
<path d="M131.457 149.061C131.457 149.061 136.397 142.863 141.539 138.704C145.915 135.163 148.403 134.419 149.605 136.045C151.037 137.98 149.928 141.865 146.742 145.131C143.556 148.395 137.874 152.383 131.276 153.184" fill="white"/>
<path d="M131.457 149.061C131.457 149.061 136.397 142.863 141.539 138.704C145.915 135.163 148.403 134.419 149.605 136.045C151.037 137.98 149.928 141.865 146.742 145.131C143.556 148.395 137.874 152.383 131.276 153.184" stroke="black" stroke-width="0.986" stroke-linecap="round" stroke-linejoin="round"/>
<path d="M93.5082 190.935C93.8262 191.658 94.2972 192.25 94.9322 192.644C98.9822 195.144 103.318 193.193 103.318 193.193C103.318 193.193 105.667 194.191 108.772 194.156C112.85 194.11 115.051 193.238 115.051 193.238C115.051 193.238 119.129 195.439 126.965 194.02C131.386 193.218 136.039 189.765 136.727 186.365C137.552 182.287 135.606 179.055 135.606 179.055C135.606 179.055 134.023 164.184 134.94 153.553C134.94 153.553 134.023 134.397 146.121 115.883C158.553 96.858 164.521 87.606 169.013 73.125C169.013 73.125 174.936 69.49 175.634 62.265C176.3 55.391 173.55 50.715 169.769 49.82C169.769 49.82 167.775 42.672 160.559 41.573C153.907 40.56 150.041 44.184 150.041 44.184C150.041 44.184 143.54 43.731 141.103 49.064C138.217 55.391 141.378 62.675 141.378 62.675C141.378 62.675 138.63 72.712 133.108 84.719C126.814 98.401 120.825 106.532 120.825 106.532L77.3822 105.983L50.5682 42.173C49.0112 38.693 45.4842 37.243 41.8172 38.342C38.8152 39.242 37.5092 42.375 37.5092 42.375C37.5092 42.375 35.1732 40.817 32.0122 42.1C28.8492 43.383 25.0452 47.277 25.5492 53.145C26.0312 58.738 30.1772 61.621 30.1772 61.621C30.1772 61.621 30.8152 74.849 39.5262 89.945C48.7842 105.983 56.6662 111.573 56.6662 111.573C56.6662 111.573 53.0912 123.581 54.5582 136.322C56.0252 149.061 59.6902 156.028 59.6902 156.028C59.6902 156.028 63.1282 167.302 67.3782 176.603C62.8132 177.44 57.2912 179.254 55.7962 183.181C52.0832 192.941 61.1562 194.294 68.1242 192.57H68.1262C68.3502 192.901 68.6462 193.211 69.0292 193.458C70.9542 194.695 74.9062 194.524 78.6172 193.79C84.1192 194.418 90.1692 192.797 93.5082 190.935ZM96.5832 179.59C96.5332 176.931 96.5102 173.901 96.7872 170.624C97.8726 172.551 99.0236 174.441 100.238 176.29C98.8602 177.199 97.6279 178.312 96.5832 179.59Z" fill="white"/>
<path d="M51.214 49.2019C51.814 47.7549 51.257 46.1499 49.971 45.6169C48.685 45.0839 47.156 45.8249 46.557 47.2719C45.957 48.7179 46.513 50.3229 47.799 50.8559C49.085 51.3889 50.614 50.6479 51.214 49.2019Z" fill="black"/>
<path d="M65.0078 88.6619C65.0078 88.6619 66.2738 102.426 70.8508 108.871C76.4188 116.708 80.8878 117.67 87.9678 123.032C87.9678 123.032 96.5448 121.731 108.797 114.439C126.121 104.128 134.782 91.4119 134.782 91.4119L65.0078 88.6619Z" fill="#4CD8E5" stroke="black" stroke-width="0.986" stroke-linecap="round" stroke-linejoin="round"/>
<path d="M72.5225 96.175C72.5225 96.175 73.8505 101.811 77.9425 105.947M102.083 108.813C102.083 108.813 111.018 102.363 121.009 98.696" stroke="black" stroke-width="0.986" stroke-linecap="round" stroke-linejoin="round"/>
<path d="M147.152 48.308C148.529 59.65 146.396 67.144 146.396 67.144C146.396 67.144 148.115 72.094 146.396 80.412C144.912 87.598 139.956 93.044 127.081 98.214C118.35 101.72 107.764 100.828 107.764 100.828C107.764 100.828 101.715 104.334 89.5482 103.714C79.8322 103.22 75.1362 99.978 75.1362 99.978C75.1362 99.978 65.4872 98.628 58.6142 93.748C53.6542 90.227 48.4182 84.283 48.2342 77.042C48.0502 69.802 50.5712 66.526 50.5712 66.526C50.5712 66.526 46.7192 58.783 49.4042 46.521C49.7533 44.9173 50.1855 43.3328 50.6992 41.774L50.7122 41.779C50.7122 41.779 58.2002 36.141 78.3422 33.255C93.9872 31.012 111.444 32.932 125.499 37.973C140.702 43.425 146.805 46.843 146.958 46.929C147.031 47.383 147.097 47.841 147.152 48.308Z" fill="white"/>
<path d="M139.891 29.9079C139.891 29.9079 145.33 36.706 146.958 46.929C146.804 46.843 140.702 43.4259 125.498 37.9739C111.444 32.9329 93.9872 31.0119 78.3422 33.2549C58.2002 36.1409 50.7122 41.7799 50.7122 41.7799L50.6992 41.775C54.8532 29.177 62.6692 23.8359 62.6692 23.8359C62.6692 23.8359 62.1172 17.3329 66.1072 10.7519C70.4152 3.64895 78.1762 4.52595 82.4232 8.82895C85.9512 12.4029 87.2122 16.9629 87.2122 16.9629C87.2122 16.9629 92.7442 16.2059 100.341 16.6529C107.935 17.1009 112.543 18.8179 112.543 18.8179C112.543 18.8179 117.067 12.2639 123.117 9.79195C129.166 7.31695 134.396 9.51195 136.911 14.6489C140.118 21.2019 139.891 29.9079 139.891 29.9079Z" fill="white"/>
<path d="M50.7002 41.775C54.8532 29.177 62.6702 23.8359 62.6702 23.8359C62.6702 23.8359 62.1172 17.3329 66.1072 10.7519C70.4152 3.64895 78.1762 4.52595 82.4232 8.82895C85.9512 12.4029 87.2122 16.9629 87.2122 16.9629C87.2122 16.9629 92.7442 16.2059 100.341 16.6529C107.935 17.1009 112.543 18.8179 112.543 18.8179C112.543 18.8179 117.067 12.2639 123.117 9.79195C129.166 7.31695 134.396 9.51195 136.911 14.6489C140.118 21.2019 139.891 29.9089 139.891 29.9089C139.891 29.9089 145.33 36.706 146.958 46.929C147.031 47.383 147.097 47.8419 147.152 48.3079C148.529 59.6499 146.396 67.1439 146.396 67.1439C146.396 67.1439 148.115 72.0939 146.396 80.4119C144.912 87.5979 139.956 93.0449 127.081 98.2139C118.35 101.72 107.764 100.828 107.764 100.828C107.764 100.828 101.715 104.334 89.5482 103.714C79.8322 103.22 75.1362 99.9789 75.1362 99.9789C75.1362 99.9789 65.4872 98.6279 58.6142 93.7479C53.6542 90.2269 48.4182 84.2829 48.2342 77.0419C48.0502 69.8029 50.5712 66.526 50.5712 66.526C50.5712 66.526 46.7192 58.783 49.4042 46.521C49.7533 44.9176 50.1866 43.3334 50.7002 41.775Z" stroke="black" stroke-width="0.986" stroke-linecap="round" stroke-linejoin="round"/>
<path d="M66.8632 21.774C66.8632 21.774 71.0102 19.804 75.2952 18.543C79.5792 17.283 83.6352 16.688 83.6352 16.688C83.6352 16.688 82.6492 12.794 78.8692 10.616C75.7332 8.81102 72.7292 8.71302 69.6112 12.862C66.6392 16.816 66.8612 21.774 66.8612 21.774H66.8632ZM127.518 22.278C132.054 24.043 135.47 25.946 135.47 25.946C135.47 25.946 136.707 21.476 134.348 17.466C132.337 14.049 129.673 12.106 125.733 13.388C120.826 14.986 118.171 19.438 118.171 19.438C118.171 19.438 122.983 20.514 127.52 22.278H127.518Z" fill="#FEE2E2"/>
<path d="M88.3611 62.178C90.4581 62.178 92.2051 62.548 92.6911 63.433C93.7911 65.427 91.0861 67.209 89.6161 68.091C87.9831 69.071 86.7461 68.487 85.7671 67.885C85.0141 67.421 83.0881 65.359 83.7741 63.825C84.3241 62.592 86.2661 62.181 88.3611 62.181V62.178Z" fill="black"/>
<path d="M85.7844 64.3099C86.2874 64.0869 86.5794 63.6469 86.4364 63.3259C86.2944 63.0059 85.7714 62.9259 85.2684 63.1499C84.7664 63.3729 84.4744 63.8139 84.6174 64.1339C84.7594 64.4539 85.2824 64.5329 85.7844 64.3099Z" fill="white"/>
<path d="M67.3783 189.987C67.3783 189.987 67.3073 192.354 69.0283 193.458C70.9543 194.695 74.9063 194.524 78.6193 193.79C86.2263 194.66 94.8893 191.224 95.9713 188.802C97.3313 185.757 96.0793 178.987 96.7873 170.624" stroke="black" stroke-width="0.986" stroke-linecap="round" stroke-linejoin="round"/>
<path d="M73.9438 175.895C73.9438 175.895 58.4598 176.177 55.7958 183.181C52.0828 192.943 61.1568 194.294 68.1258 192.57" stroke="black" stroke-width="0.986" stroke-linecap="round" stroke-linejoin="round"/>
<path d="M67.3782 176.603C63.1282 167.3 59.6902 156.028 59.6902 156.028C59.6902 156.028 56.0232 149.061 54.5582 136.322C53.0912 123.581 56.6652 111.576 56.6652 111.576C56.6652 111.576 48.7842 105.985 39.5252 89.945C30.8152 74.849 30.1772 61.624 30.1772 61.624C30.1772 61.624 26.0282 58.738 25.5492 53.144C25.0452 47.28 28.8492 43.383 32.0122 42.1C35.1752 40.817 37.5122 42.375 37.5122 42.375C37.5122 42.375 38.8182 39.242 41.8192 38.342C45.4872 37.242 49.0102 38.692 50.5712 42.173M103.182 174.863C103.182 174.863 97.8662 176.214 94.2922 183.068C92.4922 186.516 92.4472 191.113 94.9342 192.646C98.9852 195.146 103.32 193.195 103.32 193.195C103.32 193.195 105.669 194.193 108.775 194.158C112.853 194.113 115.053 193.241 115.053 193.241C115.053 193.241 119.132 195.441 126.968 194.019C131.389 193.218 136.042 189.765 136.73 186.367C137.554 182.289 135.608 179.058 135.608 179.058C135.608 179.058 134.028 164.186 134.943 153.555C134.943 153.555 134.025 134.399 146.124 115.885C158.555 96.86 164.524 87.61 169.015 73.127C169.015 73.127 174.939 69.495 175.637 62.267C176.302 55.393 173.552 50.717 169.772 49.825C169.772 49.825 167.778 42.677 160.559 41.575C153.907 40.562 150.041 44.186 150.041 44.186C150.041 44.186 143.54 43.733 141.106 49.066C138.22 55.39 141.38 62.677 141.38 62.677C141.38 62.677 138.63 72.714 133.108 84.719C126.814 98.401 120.825 106.534 120.825 106.534" stroke="black" stroke-width="0.986" stroke-linecap="round" stroke-linejoin="round"/>
<path d="M146.122 115.883C158.553 96.858 164.521 87.6079 169.013 73.1249C169.013 73.1249 174.936 69.4929 175.634 62.2639C176.3 55.3899 173.55 50.7139 169.769 49.8219C169.769 49.8219 167.775 42.6739 160.557 41.5719C153.905 40.5599 150.038 44.1839 150.038 44.1839C150.038 44.1839 143.538 43.7299 141.103 49.0639C138.217 55.3879 141.378 62.6739 141.378 62.6739C141.378 62.6739 138.628 72.7109 133.106 84.7169C126.812 98.3979 120.823 106.532 120.823 106.532" fill="white"/>
<path d="M146.122 115.883C158.553 96.858 164.521 87.6079 169.013 73.1249C169.013 73.1249 174.936 69.4929 175.634 62.2639C176.3 55.3899 173.55 50.7139 169.769 49.8219C169.769 49.8219 167.775 42.6739 160.557 41.5719C153.905 40.5599 150.038 44.1839 150.038 44.1839C150.038 44.1839 143.538 43.7299 141.103 49.0639C138.217 55.3879 141.378 62.6739 141.378 62.6739C141.378 62.6739 138.628 72.7109 133.106 84.7169C126.812 98.3979 120.823 106.532 120.823 106.532" stroke="black" stroke-width="0.986" stroke-linecap="round" stroke-linejoin="round"/>
<path d="M103.182 174.863C103.182 174.863 97.8665 176.214 94.2925 183.068C92.4925 186.516 92.4475 191.113 94.9345 192.646C98.9855 195.146 103.32 193.195 103.32 193.195C103.32 193.195 105.67 194.193 108.776 194.158C112.854 194.113 115.054 193.24 115.054 193.24C115.054 193.24 119.133 195.441 126.969 194.019C131.39 193.218 136.042 189.765 136.73 186.367C137.554 182.289 135.609 179.057 135.609 179.057" fill="white"/>
<path d="M103.182 174.863C103.182 174.863 97.8665 176.214 94.2925 183.068C92.4925 186.516 92.4475 191.113 94.9345 192.646C98.9855 195.146 103.32 193.195 103.32 193.195C103.32 193.195 105.67 194.193 108.776 194.158C112.854 194.113 115.054 193.24 115.054 193.24C115.054 193.24 119.133 195.441 126.969 194.019C131.39 193.218 136.042 189.765 136.73 186.367C137.554 182.289 135.609 179.057 135.609 179.057" stroke="black" stroke-width="0.986" stroke-linecap="round" stroke-linejoin="round"/>
<path d="M100.238 176.29C96.4917 170.637 93.3287 164.093 93.3287 164.093C93.3287 164.093 83.8417 163.247 79.1687 159.67M103.32 193.193C103.32 193.193 101.395 191.91 101.443 187.786M115.051 193.238C115.051 193.238 114.638 192.23 115.006 190.718M73.4617 56.3279C73.4617 56.3279 78.8227 56.4669 82.9017 58.0479C82.9017 58.0479 77.9517 58.2539 73.2197 60.6479M104.603 56.5349C104.603 56.5349 99.5397 57.1999 96.9277 58.8029C96.9277 58.8029 101.763 58.5969 106.897 60.1089" stroke="black" stroke-width="0.986" stroke-linecap="round" stroke-linejoin="round"/>
<path d="M99.3598 74.56C99.3598 74.56 98.3928 81.947 92.6398 85.223C89.4598 87.036 84.8698 85.612 82.3518 82.06C80.0608 78.831 80.0918 75.096 80.0918 75.096C81.3008 75.519 82.6568 75.693 83.9348 75.529C86.9818 75.141 88.0808 73.719 88.0808 73.719C88.0808 73.719 89.0998 75.482 92.2978 75.92C95.4738 76.354 97.8038 75.653 99.3598 74.56Z" fill="#E75C5C"/>
<path d="M87.7388 66.915C87.7388 66.915 87.2568 68.197 87.2568 70.214C87.2568 72.23 88.0808 73.72 88.0808 73.72C88.0808 73.72 89.0998 75.482 92.2978 75.92C95.4738 76.354 97.8048 75.653 99.3608 74.56C99.8963 74.1848 100.373 73.7318 100.775 73.216C101.818 71.865 101.831 70.489 101.831 70.489" stroke="black" stroke-width="0.986" stroke-linecap="round" stroke-linejoin="round"/>
<path d="M88.0811 73.72C88.0811 73.72 86.9821 75.141 83.9351 75.53C82.6571 75.693 81.3011 75.52 80.0911 75.096C78.7051 74.61 77.5131 73.798 76.8521 72.782C75.6171 70.879 76.4191 69.002 76.4191 69.002" stroke="black" stroke-width="0.986" stroke-linecap="round" stroke-linejoin="round"/>
<path d="M80.0908 75.0958C80.0908 75.0958 80.0608 78.8308 82.3518 82.0598C84.8698 85.6118 89.4598 87.0358 92.6408 85.2228C98.3928 81.9468 99.3608 74.5588 99.3608 74.5588M88.8778 90.0698C88.8778 90.0698 91.0778 90.6018 93.3968 89.4398" stroke="black" stroke-width="0.986" stroke-linecap="round" stroke-linejoin="round"/>
<path d="M94.8824 83.5449C94.8824 83.5449 91.7314 81.7149 87.5724 82.1639C84.2204 82.5239 82.4864 85.3269 82.0404 87.2319C81.5334 89.3999 83.1914 91.4769 85.2184 91.7189C87.2444 91.9609 89.2564 91.4269 90.8544 89.1589C92.0744 87.4259 92.8304 84.0719 94.8824 83.5449Z" fill="#FF6B6B" stroke="black" stroke-width="0.986" stroke-linecap="round" stroke-linejoin="round"/>
<path d="M90.3947 82.1809C90.3947 82.1809 88.0357 83.8649 86.5947 87.0789M111.134 174.864C111.134 174.864 118.146 174.279 122.683 175.655" stroke="black" stroke-width="0.986" stroke-linecap="round" stroke-linejoin="round"/>
<path d="M41.9204 61.3939C44.8124 61.3939 47.1564 58.8289 47.1564 55.6649C47.1564 52.5009 44.8124 49.9359 41.9204 49.9359C39.0304 49.9359 36.6854 52.5009 36.6854 55.6659C36.6854 58.8289 39.0294 61.3939 41.9204 61.3939ZM34.5434 52.9829C35.9354 52.9829 37.0634 51.7899 37.0634 50.3189C37.0634 48.8479 35.9354 47.6549 34.5434 47.6549C33.1514 47.6549 32.0234 48.8479 32.0234 50.3189C32.0234 51.7899 33.1514 52.9829 34.5434 52.9829ZM41.6584 49.3409C43.0504 49.3409 44.1784 48.0709 44.1784 46.5049C44.1784 44.9389 43.0504 43.6699 41.6584 43.6699C40.2664 43.6699 39.1384 44.9399 39.1384 46.5049C39.1384 48.0719 40.2664 49.3409 41.6584 49.3409ZM155.402 68.6559C156.303 68.6668 157.197 68.4989 158.032 68.1618C158.867 67.8247 159.627 67.3251 160.268 66.6921C160.909 66.059 161.418 65.3051 161.765 64.474C162.112 63.6429 162.291 62.7511 162.291 61.8504C162.291 60.9497 162.112 60.0579 161.765 59.2268C161.418 58.3957 160.909 57.6418 160.268 57.0088C159.627 56.3757 158.867 55.8762 158.032 55.5391C157.197 55.202 156.303 55.034 155.402 55.0449C153.618 55.0755 151.917 55.8059 150.665 57.0788C149.414 58.3516 148.713 60.0651 148.713 61.8499C148.713 63.6348 149.414 65.3482 150.665 66.6211C151.917 67.8939 153.618 68.6253 155.402 68.6559ZM165.325 59.3529C166.116 59.3529 166.874 59.039 167.433 58.4801C167.991 57.9212 168.305 57.1633 168.305 56.3729C168.305 55.5826 167.991 54.8246 167.433 54.2657C166.874 53.7069 166.116 53.3929 165.325 53.3929C164.535 53.3929 163.777 53.7069 163.218 54.2657C162.659 54.8246 162.345 55.5826 162.345 56.3729C162.345 57.1633 162.659 57.9212 163.218 58.4801C163.777 59.039 164.535 59.3529 165.325 59.3529ZM152.157 52.8719C152.362 51.4799 151.343 50.1759 149.88 49.9619C148.417 49.7459 147.066 50.6999 146.861 52.0919C146.656 53.4849 147.675 54.7879 149.138 55.0029C150.601 55.2189 151.952 54.2639 152.157 52.8719ZM159.805 53.7589C161.316 52.7919 161.868 50.9549 161.037 49.6559C160.206 48.3559 158.307 48.0859 156.795 49.0529C155.284 50.0199 154.732 51.8569 155.563 53.1569C156.394 54.4559 158.293 54.7259 159.805 53.7589Z" fill="black"/>
</g>
</svg>
