<svg width="200" height="200" viewBox="0 0 200 200" fill="none" xmlns="http://www.w3.org/2000/svg">
<mask id="mask0_492_3422" style="mask-type:luminance" maskUnits="userSpaceOnUse" x="27" y="5" width="147" height="190">
<path d="M27 5H173.536V195H27V5Z" fill="white"/>
</mask>
<g mask="url(#mask0_492_3422)">
<path d="M63.2369 107.95L54.8769 113.209L53.9209 119.334L55.3089 133.076L60.8179 139.881L69.0499 146.257L73.5559 147.757L80.0019 148.484L85.3879 138.707L84.4579 124.72L72.7619 106.882L63.2369 107.95ZM135.103 160.91C135.103 160.91 140.348 155.441 145.651 152.743C150.519 150.266 152.54 151.037 153.712 153.17C154.884 155.3 155.702 160.025 152.149 163.22C149.097 165.968 142.312 166.593 136.132 163.648" fill="white"/>
<path d="M135.103 160.91C135.103 160.91 140.348 155.441 145.651 152.743C150.519 150.266 152.54 151.037 153.712 153.17C154.884 155.3 155.702 160.025 152.149 163.22C149.097 165.968 142.312 166.593 136.132 163.648" stroke="black" stroke-width="1.086" stroke-linecap="round" stroke-linejoin="round"/>
<path d="M71.46 86.6589L139.739 102.892C139.739 102.892 147.133 105.885 153.621 117.204C158.533 125.775 163.802 140.027 163.802 140.027C163.802 140.027 168.083 138.574 170.62 140.384C173.342 142.324 173.816 145.544 171.683 147.867C171.863 148.156 172.016 148.484 172.136 148.859C172.993 151.542 171.709 154.258 169.128 155.514C167.284 156.409 165.007 155.938 165.007 155.938C164.794 157.785 162.736 159.668 158.332 159.597C154.707 159.54 150.24 159.509 146.51 154.836C146.51 154.836 144.622 160.816 140.786 164.249C138.939 172.797 138.442 185.311 138.371 188.294C138.301 191.278 137.447 192.982 131.483 193.479C126.636 193.883 121.94 193.018 121.94 193.018C121.94 193.018 119.359 193.503 116.564 193.549C113.772 193.596 112.517 192.841 112.517 192.841C112.517 192.841 109.816 194.154 107.081 192.875C106.944 192.809 106.815 192.728 106.696 192.633C106.696 192.633 105.946 194.19 101.685 194.224C98.843 194.247 97.351 193.479 97.351 193.479C92.663 195.005 88.222 194.06 88.222 194.06C78.989 196.284 77.854 189.182 79.416 184.35C80.622 180.626 86.091 179.095 86.091 179.095C82.208 171.044 81.617 163.541 81.617 163.541C81.617 163.541 76.827 158.644 73.874 148.906C73.659 148.191 73.4729 147.468 73.316 146.739" fill="white"/>
<path d="M73.4951 126.247C73.4951 126.247 70.9381 139.222 73.8731 148.906C76.8261 158.644 81.6161 163.538 81.6161 163.538C81.6161 163.538 82.2071 171.044 86.0911 179.094C86.0911 179.094 80.6191 180.623 79.4131 184.35C77.8501 189.181 78.9861 196.284 88.2211 194.057C88.2211 194.057 92.6611 195.005 97.3501 193.476C97.3501 193.476 98.8421 194.245 101.684 194.221C105.945 194.185 106.697 192.627 106.697 192.627" stroke="black" stroke-width="1.086" stroke-linecap="round" stroke-linejoin="round"/>
<path d="M56.6105 40.048L39.1145 45.258C38.4706 45.4484 37.7775 45.3758 37.187 45.056C36.5965 44.7362 36.1569 44.1954 35.9646 43.552L32.5616 32.112C32.4669 31.7933 32.4361 31.459 32.4709 31.1283C32.5058 30.7976 32.6055 30.4771 32.7645 30.185C33.0745 29.615 33.5975 29.162 34.2675 28.961L51.7645 23.752C52.4082 23.5622 53.1009 23.6352 53.6909 23.9549C54.2809 24.2747 54.7201 24.8151 54.9125 25.458L58.3166 36.898C58.5064 37.5416 58.4336 38.2341 58.114 38.8241C57.7945 39.414 57.2543 39.8534 56.6115 40.046L56.6105 40.048Z" fill="white" stroke="#9FCFFF" stroke-width="1.086" stroke-linecap="round" stroke-linejoin="round"/>
<path d="M45.4373 34.506L53.4963 23.864M45.4713 34.496L32.9043 29.996" stroke="#9FCFFF" stroke-width="1.086" stroke-linecap="round" stroke-linejoin="round"/>
<path d="M45.5079 30.472C44.6699 31.232 44.7449 32.019 44.7449 32.019C44.7449 32.019 44.3779 31.319 43.2609 31.141C40.0509 30.631 39.9609 34.233 40.8719 35.688C42.9739 39.043 46.9149 39.311 46.9149 39.311C46.9149 39.311 50.0689 36.934 49.9929 32.975C49.9589 31.258 47.9149 28.289 45.5059 30.472H45.5079Z" fill="#FF6C6C"/>
<path d="M135.34 100.012L151.014 92.292C151.014 92.292 150.766 98.377 148.777 102.924C148.777 102.924 151.014 103.658 152.149 105.552C152.149 105.552 147.698 109.292 135.337 104.416V100.012H135.34Z" fill="#4CD8E5" stroke="black" stroke-width="1.086" stroke-linecap="round" stroke-linejoin="round"/>
<path d="M76.003 88.1741C76.003 88.1741 75.719 99.6111 81.259 110.122C84.861 116.959 88.458 120.374 94.756 126.958C94.756 126.958 106.546 123.762 126.577 111.615C139.649 103.687 147.53 96.8391 147.53 96.8391L76 88.1741H76.003Z" fill="#4CD8E5" stroke="black" stroke-width="1.086" stroke-linecap="round" stroke-linejoin="round"/>
<path d="M85.0967 100.108C85.0967 100.108 87.4407 106.893 91.1337 111.972M114.15 112.112C114.15 112.112 120.968 107.354 131.837 102.345" stroke="black" stroke-width="1.086" stroke-linecap="round" stroke-linejoin="round"/>
<path d="M159.113 69.4221C159.113 69.4221 161.954 74.6781 160.532 84.3381C159.431 91.8381 153.146 97.5501 143.343 101.457C135.011 104.778 126.934 104.369 126.934 104.369C126.934 104.369 118.056 109.057 102.783 107.708C92.771 106.822 88.648 104.158 88.648 104.158C88.648 104.158 76.36 101.527 69.115 95.9881C64.122 92.1691 60.056 87.1241 59.668 79.6501C59.311 72.8311 61.515 68.7601 61.515 68.7601C61.515 68.7601 58.311 60.9051 60.445 48.8381L60.447 48.8331C60.632 48.5101 68.412 35.2151 92.201 31.8471C108.37 29.5571 124.361 33.5921 134.818 37.1731C150.445 42.5251 160.152 51.6961 160.152 51.6961C161.321 62.7991 159.113 69.4221 159.113 69.4221Z" fill="white"/>
<path d="M160.035 50.67C160.076 51.016 160.115 51.357 160.152 51.696C160.152 51.696 150.445 42.526 134.818 37.173C124.361 33.592 108.369 29.557 92.2013 31.847C68.4113 35.214 60.6313 48.51 60.4473 48.833C60.5123 48.456 60.5853 48.073 60.6633 47.687C63.6093 33.04 74.2063 24.767 74.2063 24.767C74.2063 24.767 73.7303 17.832 77.8533 11.034C82.3033 3.69401 89.8803 4.47901 94.4253 8.76101C98.4983 12.597 99.9673 17.379 99.9673 17.379C99.9673 17.379 106.265 16.574 112.753 17.049C119.24 17.522 126.153 19.606 126.153 19.606C126.153 19.606 130.51 12.74 136.761 10.183C143.012 7.62501 148.51 9.79701 151.109 15.108C154.425 21.879 153.383 29.93 153.383 29.93C153.383 29.93 158.659 39.316 160.035 50.67Z" fill="white"/>
<path d="M60.447 48.833C60.512 48.456 60.585 48.073 60.663 47.687C63.609 33.04 74.207 24.767 74.207 24.767C74.207 24.767 73.73 17.832 77.853 11.034C82.303 3.69401 89.88 4.47901 94.425 8.76101C98.499 12.597 99.968 17.379 99.968 17.379C99.968 17.379 106.265 16.574 112.753 17.049C119.241 17.522 126.153 19.606 126.153 19.606C126.153 19.606 130.51 12.74 136.761 10.183C143.012 7.62501 148.51 9.79701 151.109 15.108C154.425 21.879 153.383 29.93 153.383 29.93C153.383 29.93 158.66 39.316 160.035 50.67C160.076 51.016 160.116 51.357 160.152 51.696C161.321 62.799 159.113 69.422 159.113 69.422C159.113 69.422 161.954 74.678 160.532 84.338C159.431 91.838 153.146 97.55 143.343 101.457C135.011 104.778 126.934 104.369 126.934 104.369C126.934 104.369 118.056 109.057 102.783 107.708C92.771 106.822 88.648 104.158 88.648 104.158C88.648 104.158 76.36 101.527 69.115 95.988C64.122 92.169 60.056 87.124 59.668 79.65C59.311 72.831 61.515 68.76 61.515 68.76C61.515 68.76 58.311 60.905 60.445 48.838" stroke="black" stroke-width="1.086" stroke-linecap="round" stroke-linejoin="round"/>
<path d="M78.7281 22.494C78.7281 22.494 82.1661 20.824 86.5881 19.653C91.0111 18.483 95.1361 18.327 95.1361 18.327C95.1361 18.327 94.8761 14.657 90.7791 11.933C87.7291 9.90696 84.0771 9.39896 81.1891 13.259C78.1521 17.317 78.7281 22.492 78.7281 22.492V22.494ZM140.535 22.434C145.223 24.257 148.4 26.607 148.4 26.607C148.4 26.607 149.851 22.942 147.484 18.254C145.429 14.186 141.939 12.959 138.014 14.181C132.922 15.767 131.409 19.663 131.409 19.663C131.409 19.663 135.849 20.611 140.537 22.434H140.535Z" fill="#FEE2E2"/>
<path d="M93.123 63.5851C93.6258 63.5933 94.1253 63.5013 94.5922 63.3145C95.0591 63.1278 95.4842 62.8499 95.8427 62.4972C96.2011 62.1445 96.4858 61.724 96.6802 61.2602C96.8745 60.7964 96.9746 60.2985 96.9746 59.7956C96.9746 59.2927 96.8745 58.7949 96.6802 58.331C96.4858 57.8672 96.2011 57.4467 95.8427 57.094C95.4842 56.7413 95.0591 56.4635 94.5922 56.2767C94.1253 56.0899 93.6258 55.9979 93.123 56.0061C92.1178 56.0061 91.1538 56.4054 90.4431 57.1162C89.7323 57.8269 89.333 58.7909 89.333 59.7961C89.333 60.8013 89.7323 61.7653 90.4431 62.476C91.1538 63.1868 92.1178 63.5851 93.123 63.5851Z" fill="black"/>
<path d="M91.5515 58.7321C91.9135 58.2001 91.9435 57.5901 91.6185 57.3691C91.2935 57.1491 90.7375 57.4011 90.3755 57.9321C90.0145 58.4641 89.9845 59.0741 90.3095 59.2951C90.6345 59.5151 91.1895 59.2631 91.5515 58.7321Z" fill="white"/>
<path d="M114.955 63.872C115.96 63.8719 116.924 63.4724 117.634 62.7616C118.345 62.0507 118.744 61.0867 118.744 60.0815C118.744 59.0763 118.345 58.1124 117.634 57.4017C116.923 56.691 115.959 56.2919 114.954 56.292C113.948 56.2921 112.984 56.6916 112.274 57.4024C111.563 58.1133 111.164 59.0773 111.164 60.0825C111.164 61.0877 111.564 62.0516 112.274 62.7623C112.985 63.4729 113.949 63.8721 114.955 63.872Z" fill="black"/>
<path d="M113.382 59.0141C113.744 58.4821 113.774 57.8721 113.449 57.6511C113.124 57.4311 112.568 57.6831 112.206 58.2141C111.845 58.7461 111.815 59.3561 112.14 59.5771C112.465 59.7971 113.021 59.5461 113.382 59.0141Z" fill="white"/>
<path d="M100.883 64.1479C103.049 64.1479 104.854 64.5309 105.357 65.4449C106.493 67.5049 103.698 69.3469 102.18 70.2579C100.492 71.2709 99.2129 70.6669 98.2019 70.0449C97.4239 69.5649 95.4339 67.4349 96.1419 65.8489C96.7099 64.5749 98.7179 64.1509 100.883 64.1509V64.1479Z" fill="black"/>
<path d="M98.2204 66.354C98.7384 66.124 99.0404 65.668 98.8934 65.337C98.7464 65.006 98.2054 64.924 97.6864 65.155C97.1674 65.385 96.8664 65.841 97.0124 66.172C97.1604 66.503 97.7014 66.585 98.2204 66.354Z" fill="white"/>
<path d="M108.837 77.9701C108.837 77.9701 108.016 84.5991 104.844 87.8441C102.2 90.5471 99.0797 89.6121 96.5327 85.9011C94.0477 82.2811 93.9277 77.6241 93.9277 77.6241C95.0997 77.8091 96.3377 77.6651 97.3877 77.1421C99.2227 76.2221 99.9917 74.8921 99.9917 74.8921C99.9917 74.8921 101.411 76.7851 104.182 77.7571C105.797 78.3241 107.461 78.2851 108.837 77.9701Z" fill="#FF6B6B"/>
<path d="M100.513 68.9011C100.513 68.9011 99.8846 70.0161 99.7776 71.9331C99.6816 73.6361 99.9916 74.8921 99.9916 74.8921M99.9916 74.8921C99.9916 74.8921 101.411 76.7851 104.182 77.7571C105.797 78.3241 107.461 78.2851 108.837 77.9701C109.818 77.7491 110.652 77.3841 111.214 76.9991C112.564 76.0771 113.108 74.3471 113.108 74.3471M99.9916 74.8921C99.9916 74.8921 99.2236 76.2221 97.3876 77.1421C96.3376 77.6651 95.1006 77.8091 93.9276 77.6241C93.1499 77.5062 92.4026 77.2379 91.7276 76.8341C90.0706 75.8271 89.6436 74.1341 89.6436 74.1341" stroke="black" stroke-width="1.086" stroke-linecap="round" stroke-linejoin="round"/>
<path d="M93.9271 77.624C93.9271 77.624 94.0471 82.28 96.5321 85.901C99.0791 89.612 102.199 90.547 104.843 87.844C108.015 84.598 108.836 77.973 108.836 77.973M99.8471 93.834C99.8471 93.834 100.819 95.089 103.09 94.545M146.509 154.833C146.509 154.833 144.621 160.813 140.785 164.246C138.938 172.794 138.441 185.306 138.37 188.291C138.3 191.273 137.446 192.979 131.482 193.476C126.635 193.88 121.939 193.015 121.939 193.015C121.939 193.015 119.358 193.5 116.563 193.549C113.768 193.599 112.513 192.838 112.513 192.838C112.513 192.838 109.815 194.153 107.08 192.875C104.7 191.763 104.736 185.309 105.838 182.6C107.57 178.336 111.331 178.196 111.331 178.196C110.857 172.039 110.953 167.4 110.953 167.4C110.953 167.4 101.671 168.158 94.8051 165.27M88.2211 194.057C88.2211 194.057 86.1971 192.448 86.3381 188.682M97.3501 193.479C97.3501 193.479 95.7501 191.383 96.3211 188.4" stroke="black" stroke-width="1.086" stroke-linecap="round" stroke-linejoin="round"/>
<path d="M112.514 192.839C112.514 192.839 110.667 190.695 111.379 187.57M121.94 193.015C121.94 193.015 120.685 191.523 121.182 187.866M71.46 116.339C71.46 116.339 72.931 117.605 75.65 116.092C78.776 114.352 80.161 110.479 78.919 107.958C78.919 107.958 82.234 106.112 81.333 101.564C80.435 97.0189 76.538 96.5559 76.538 96.5559M139.736 102.893C139.736 102.893 147.13 105.885 153.618 117.202C158.53 125.773 163.799 140.027 163.799 140.027C163.799 140.027 168.084 138.574 170.618 140.382C173.339 142.322 173.813 145.544 171.68 147.864" stroke="black" stroke-width="1.086" stroke-linecap="round" stroke-linejoin="round"/>
<path d="M167.185 145.781C167.185 145.781 171.045 145.45 172.134 148.859C172.991 151.542 171.706 154.258 169.125 155.514C167.281 156.41 165.005 155.941 165.005 155.941" stroke="black" stroke-width="1.086" stroke-linecap="round" stroke-linejoin="round"/>
<path d="M163.338 152.635C163.338 152.635 165.292 153.487 165.008 155.938C164.794 157.784 162.734 159.667 158.33 159.597C154.282 159.532 149.183 159.503 145.237 153.003C140.406 145.046 136.098 131.409 136.098 131.409" stroke="black" stroke-width="1.086" stroke-linecap="round" stroke-linejoin="round"/>
<path d="M73.1337 147.757C73.1337 147.757 47.8207 147.062 54.4467 114.448L73.1337 147.757Z" fill="white"/>
<path d="M73.1337 147.757C73.1337 147.757 47.8207 147.062 54.4467 114.448" stroke="black" stroke-width="1.086" stroke-linecap="round" stroke-linejoin="round"/>
<path d="M72.5768 125.401C73.3088 126.838 78.2068 126.021 79.9108 124.286C81.6118 122.554 80.6928 98.7019 80.6928 98.7019L67.2998 103.015C67.2998 103.015 69.3578 119.085 72.5768 125.398V125.401Z" fill="#9FCFFF" stroke="black" stroke-width="1.086" stroke-linecap="round" stroke-linejoin="round"/>
<path d="M55.1081 117.17C55.1081 117.17 50.4821 106.216 59.4861 94.8889C68.4901 83.5619 83.4361 92.9389 83.4361 92.9389C83.4361 92.9389 90.3071 98.0429 82.6941 103.241C82.6941 103.241 89.0991 106.862 80.8371 111.412C80.8371 111.412 84.2731 118.931 68.3981 120.788" fill="white"/>
<path d="M55.1081 117.17C55.1081 117.17 50.4821 106.216 59.4861 94.8889C68.4901 83.5619 83.4361 92.9389 83.4361 92.9389C83.4361 92.9389 90.3071 98.0429 82.6941 103.241C82.6941 103.241 89.0991 106.862 80.8371 111.412C80.8371 111.412 84.2731 118.931 68.3981 120.788" stroke="black" stroke-width="1.086" stroke-linecap="round" stroke-linejoin="round"/>
<path d="M96.6201 81.1501C96.6201 81.1501 95.6571 67.5471 86.0391 65.4601C80.9341 64.3541 79.9131 65.8331 79.9131 65.8331L81.5851 98.4181C81.5851 98.4181 84.6761 99.4211 89.4771 97.6761C94.5811 95.8191 97.5531 87.8361 96.6261 81.1501H96.6201Z" fill="#FCCF7A" stroke="black" stroke-width="1.086" stroke-linecap="round" stroke-linejoin="round"/>
<path d="M51.1512 56.116L79.9112 65.831C79.9112 65.831 85.0882 68.761 86.3412 81.411C87.4562 92.659 81.5802 98.415 81.5802 98.415L66.5552 103.257L50.5752 108.406L51.1512 56.118V56.116Z" fill="#9FCFFF" stroke="black" stroke-width="1.086" stroke-linecap="round" stroke-linejoin="round"/>
<path d="M44.4165 110.344C53.7475 110.344 61.3125 97.6811 61.3125 82.0611C61.3125 66.4411 53.7475 53.7791 44.4165 53.7791C35.0865 53.7791 27.5215 66.442 27.5215 82.0611C27.5215 97.6811 35.0855 110.344 44.4165 110.344Z" fill="#9FCFFF" stroke="black" stroke-width="1.086" stroke-linecap="round" stroke-linejoin="round"/>
<path d="M43.8462 106.882C51.8192 106.882 58.2832 95.77 58.2832 82.062C58.2832 68.353 51.8192 57.241 43.8462 57.241C35.8732 57.241 29.4092 68.353 29.4092 82.061C29.4092 95.77 35.8732 106.882 43.8462 106.882Z" fill="#FCCF7A" stroke="black" stroke-width="0.814" stroke-linecap="round" stroke-linejoin="round"/>
<path d="M58.2835 82.062C58.2835 77.738 57.6395 73.675 56.5095 70.136L45.4375 74.22V90.373L56.5255 93.938C57.6455 90.412 58.2835 86.364 58.2835 82.062Z" fill="#FCCF7A" stroke="black" stroke-width="0.814" stroke-linecap="round" stroke-linejoin="round"/>
<path d="M45.4375 90.37C48.3605 90.37 50.7295 86.754 50.7295 82.294C50.7295 77.834 48.3605 74.217 45.4375 74.217C42.5145 74.217 40.1455 77.833 40.1455 82.294C40.1455 86.754 42.5155 90.37 45.4375 90.37Z" fill="#FCCF7A" stroke="black" stroke-width="0.814" stroke-linecap="round" stroke-linejoin="round"/>
<path d="M43.9559 88.7371C43.9559 88.7371 38.5229 82.9571 43.7039 75.9541M87.2449 67.4121C87.2449 67.4121 93.2799 69.9801 94.9489 82.2961C94.9489 82.2961 92.4439 71.8681 87.2449 67.4121Z" stroke="#FFF1DC" stroke-width="0.814" stroke-linecap="round" stroke-linejoin="round"/>
<path d="M80.2438 69.3231L60.0678 63.5671L57.7178 61.0901L79.3178 68.1461L80.2448 69.3231H80.2438Z" fill="#DCEFFF" stroke="#DCEFFF" stroke-width="1.357" stroke-linecap="round" stroke-linejoin="round"/>
</g>
</svg>
