<svg width="28" height="24" viewBox="0 0 28 24" fill="none" xmlns="http://www.w3.org/2000/svg">
<path fill-rule="evenodd" clip-rule="evenodd" d="M11.7826 23.284C12.8161 24.2361 14.4073 24.2361 15.441 23.2976L15.577 23.1756L15.66 23.0994C22.7533 16.6551 27.3948 12.4383 27.2051 7.18142C27.1235 4.8699 25.9403 2.6531 24.0227 1.34744C20.4322 -1.11447 15.9985 0.0417753 13.605 2.84353C11.2113 0.0417753 6.77769 -1.1008 3.18723 1.34744C1.26963 2.6531 0.0864038 4.8699 0.00486084 7.18142C-0.172019 12.4588 4.4929 16.6883 11.6329 23.1482L11.7826 23.284ZM7.41331 7.56912C8.12473 7.19119 8.96836 7.20193 9.67002 7.59744L11.3607 8.54959C11.6407 8.70779 11.8589 8.94607 11.9897 9.24099C12.0565 9.39138 12.0978 9.54861 12.1128 9.70877C12.1272 9.86209 12.1174 10.0183 12.083 10.1717C12.0128 10.4851 11.8467 10.7635 11.6031 10.9744C11.5171 11.0476 11.4249 11.1111 11.3268 11.1629C11.239 11.2097 11.1472 11.2469 11.0521 11.2752C10.9515 11.3045 10.8473 11.324 10.7402 11.3318C9.93296 11.3904 9.18284 11.7859 8.67747 12.4158L8.66416 12.4334C8.52171 12.6131 8.34434 12.7556 8.14158 12.8533C8.10349 12.8719 8.06468 12.8885 8.02488 12.9031C7.97886 12.9197 7.93174 12.9353 7.88365 12.948C7.70933 12.9949 7.53086 13.0095 7.35484 12.9929C7.21751 12.9803 7.08164 12.948 6.95042 12.8963C6.65098 12.7771 6.40257 12.5711 6.23289 12.2976C6.06321 12.0232 5.98692 11.7097 6.01353 11.3885L6.17234 9.45388C6.23777 8.65213 6.702 7.94803 7.41331 7.56912ZM5.1262 9.06228C5.16331 8.92947 5.17161 8.78689 5.14951 8.63943C5.10838 8.36306 4.96165 8.1033 4.7374 7.90896C4.51328 7.71463 4.2357 7.60525 3.95701 7.6033C3.66367 7.60037 3.40183 7.71365 3.22251 7.92068C2.86009 8.33767 2.94981 9.0115 3.42246 9.42361C3.47093 9.4656 3.52158 9.50369 3.57383 9.53689C3.60655 9.5574 3.63999 9.57693 3.67393 9.59451C3.84202 9.68142 4.02232 9.72537 4.19761 9.7283C4.36887 9.73123 4.5355 9.69314 4.68174 9.61502C4.77744 9.56424 4.8635 9.49588 4.93748 9.41189C5.02659 9.30935 5.09007 9.19119 5.1262 9.06228ZM6.65952 5.59158C7.00376 6.24002 6.82066 7.01443 6.25108 7.31619C5.6815 7.61795 4.93736 7.33572 4.59312 6.68728C4.24888 6.03885 4.43198 5.26443 5.00156 4.96267C5.57115 4.66092 6.31529 4.94314 6.65952 5.59158ZM8.63267 6.42166C8.7357 6.40408 8.83262 6.37088 8.92112 6.32303C9.33677 6.10232 9.58042 5.58474 9.48826 5.03885C9.43491 4.72342 9.27989 4.4451 9.04954 4.25076C8.80833 4.04861 8.51634 3.96463 8.22666 4.01345C7.93699 4.06131 7.68858 4.23709 7.52732 4.5076C7.37339 4.76541 7.3176 5.08084 7.37095 5.39627C7.48252 6.06033 8.04844 6.51931 8.63267 6.42166ZM10.0713 6.04568C10.1647 5.42654 10.6858 4.98904 11.2324 5.0701C11.7789 5.1531 12.1474 5.72342 12.0553 6.34256C11.9959 6.73806 11.7644 7.0574 11.4626 7.21756C11.2893 7.31033 11.093 7.34842 10.8943 7.31814C10.3476 7.23611 9.97801 6.66482 10.0713 6.04568Z" fill="currentColor"/>
</svg>
