<svg width="385" height="173" viewBox="0 0 385 173" fill="none" xmlns="http://www.w3.org/2000/svg">
<path d="M8.00005 114.2V86H34.2001V35.4H71.8001V86H114.2V35.4H151.8V86H177.8V114.2H111.6V137.8H185V166H0.800049V137.8H74.0001V114.2H8.00005ZM8.00005 30.2V2.00001H177.8V30.2H8.00005Z" fill="#4CD8E5"/>
<path d="M373.8 150.8V173H243.2C224.8 173 212 168.6 212 148.6V123.6H336.2V119H212V96.8H373.8V146H249.8C249.8 149.2 249.6 150.8 254.2 150.8H373.8ZM200.8 89.6V64.2H385V89.6H200.8ZM293 0C332.2 0 373.8 5.4 373.8 43.8V56.8H336.2V50C336.2 34.2 323.2 28.2 293 28.2C262.8 28.2 249.8 34.2 249.8 50V56.8H212.2V43.8C212.2 5.4 253.8 0 293 0Z" fill="#4CD8E5"/>
</svg>
