<svg width="25" height="25" viewBox="0 0 25 25" fill="none" xmlns="http://www.w3.org/2000/svg">
<g clip-path="url(#clip0_96_2200)">
<path d="M12.5 15.6251C14.2258 15.6251 15.625 14.226 15.625 12.5001C15.625 10.7742 14.2258 9.37508 12.5 9.37508C10.7741 9.37508 9.37496 10.7742 9.37496 12.5001C9.37496 14.226 10.7741 15.6251 12.5 15.6251Z" stroke="#1E1E1E" stroke-width="2" stroke-linecap="round" stroke-linejoin="round"/>
<path d="M20.2083 15.6251C20.0696 15.9393 20.0283 16.2878 20.0895 16.6257C20.1508 16.9636 20.3119 17.2754 20.552 17.5209L20.6145 17.5834C20.8082 17.7769 20.9619 18.0067 21.0667 18.2596C21.1716 18.5125 21.2256 18.7836 21.2256 19.0574C21.2256 19.3312 21.1716 19.6023 21.0667 19.8552C20.9619 20.1081 20.8082 20.3378 20.6145 20.5313C20.4211 20.725 20.1913 20.8787 19.9384 20.9835C19.6855 21.0884 19.4144 21.1423 19.1406 21.1423C18.8668 21.1423 18.5957 21.0884 18.3428 20.9835C18.0899 20.8787 17.8601 20.725 17.6666 20.5313L17.6041 20.4688C17.3586 20.2287 17.0468 20.0676 16.7089 20.0063C16.371 19.9451 16.0225 19.9864 15.7083 20.1251C15.4002 20.2571 15.1374 20.4764 14.9524 20.7558C14.7673 21.0353 14.668 21.3628 14.6666 21.698V21.8751C14.6666 22.4276 14.4471 22.9575 14.0564 23.3482C13.6657 23.7389 13.1358 23.9584 12.5833 23.9584C12.0308 23.9584 11.5009 23.7389 11.1102 23.3482C10.7195 22.9575 10.5 22.4276 10.5 21.8751V21.7813C10.4919 21.4365 10.3803 21.1022 10.1797 20.8216C9.97902 20.5411 9.69864 20.3275 9.37496 20.2084C9.06078 20.0698 8.71226 20.0284 8.37435 20.0897C8.03643 20.1509 7.72462 20.312 7.47912 20.5522L7.41663 20.6147C7.22314 20.8084 6.99337 20.962 6.74046 21.0669C6.48755 21.1717 6.21645 21.2257 5.94267 21.2257C5.66888 21.2257 5.39779 21.1717 5.14487 21.0669C4.89196 20.962 4.66219 20.8084 4.46871 20.6147C4.27501 20.4212 4.12134 20.1914 4.0165 19.9385C3.91166 19.6856 3.8577 19.4145 3.8577 19.1407C3.8577 18.8669 3.91166 18.5958 4.0165 18.3429C4.12134 18.09 4.27501 17.8602 4.46871 17.6667L4.53121 17.6042C4.77135 17.3587 4.93244 17.0469 4.99371 16.709C5.05498 16.3711 5.01362 16.0226 4.87496 15.7084C4.74291 15.4003 4.52366 15.1376 4.24419 14.9525C3.96472 14.7674 3.63724 14.6681 3.30204 14.6667H3.12496C2.57242 14.6667 2.04252 14.4473 1.65182 14.0566C1.26112 13.6659 1.04163 13.1359 1.04163 12.5834C1.04163 12.0309 1.26112 11.501 1.65182 11.1103C2.04252 10.7196 2.57242 10.5001 3.12496 10.5001H3.21871C3.56349 10.492 3.89788 10.3804 4.1784 10.1798C4.45891 9.97915 4.67258 9.69876 4.79163 9.37508C4.93029 9.0609 4.97165 8.71238 4.91038 8.37447C4.84911 8.03656 4.68802 7.72475 4.44788 7.47925L4.38538 7.41675C4.19167 7.22326 4.03801 6.99349 3.93317 6.74058C3.82833 6.48767 3.77436 6.21657 3.77436 5.94279C3.77436 5.66901 3.82833 5.39791 3.93317 5.145C4.03801 4.89208 4.19167 4.66232 4.38538 4.46883C4.57886 4.27513 4.80863 4.12147 5.06154 4.01662C5.31445 3.91178 5.58555 3.85782 5.85933 3.85782C6.13312 3.85782 6.40421 3.91178 6.65713 4.01662C6.91004 4.12147 7.13981 4.27513 7.33329 4.46883L7.39579 4.53133C7.64129 4.77147 7.9531 4.93257 8.29101 4.99384C8.62892 5.05511 8.97744 5.01374 9.29163 4.87508H9.37496C9.68305 4.74304 9.94581 4.52378 10.1309 4.24432C10.316 3.96485 10.4153 3.63736 10.4166 3.30216V3.12508C10.4166 2.57255 10.6361 2.04264 11.0268 1.65194C11.4175 1.26124 11.9474 1.04175 12.5 1.04175C13.0525 1.04175 13.5824 1.26124 13.9731 1.65194C14.3638 2.04264 14.5833 2.57255 14.5833 3.12508V3.21883C14.5846 3.55403 14.6839 3.88151 14.869 4.16098C15.0541 4.44045 15.3169 4.6597 15.625 4.79175C15.9391 4.93041 16.2877 4.97177 16.6256 4.9105C16.9635 4.84923 17.2753 4.68814 17.5208 4.448L17.5833 4.3855C17.7768 4.1918 18.0065 4.03813 18.2595 3.93329C18.5124 3.82845 18.7835 3.77448 19.0572 3.77448C19.331 3.77448 19.6021 3.82845 19.855 3.93329C20.108 4.03813 20.3377 4.1918 20.5312 4.3855C20.7249 4.57898 20.8786 4.80875 20.9834 5.06166C21.0883 5.31458 21.1422 5.58567 21.1422 5.85946C21.1422 6.13324 21.0883 6.40434 20.9834 6.65725C20.8786 6.91016 20.7249 7.13993 20.5312 7.33341L20.4687 7.39591C20.2286 7.64141 20.0675 7.95322 20.0062 8.29113C19.9449 8.62905 19.9863 8.97756 20.125 9.29175V9.37508C20.257 9.68317 20.4763 9.94593 20.7557 10.131C21.0352 10.3161 21.3627 10.4154 21.6979 10.4167H21.875C22.4275 10.4167 22.9574 10.6362 23.3481 11.0269C23.7388 11.4176 23.9583 11.9475 23.9583 12.5001C23.9583 13.0526 23.7388 13.5825 23.3481 13.9732C22.9574 14.3639 22.4275 14.5834 21.875 14.5834H21.7812C21.446 14.5847 21.1185 14.6841 20.8391 14.8692C20.5596 15.0542 20.3403 15.317 20.2083 15.6251Z" stroke="#1E1E1E" stroke-width="2" stroke-linecap="round" stroke-linejoin="round"/>
</g>
<defs>
<clipPath id="clip0_96_2200">
<rect width="25" height="25" fill="white"/>
</clipPath>
</defs>
</svg>
