<svg width="24" height="24" viewBox="0 0 24 24" fill="none" xmlns="http://www.w3.org/2000/svg">
<path d="M4.10852 10.9131V21.8188H20.1085V10.9131H4.10852ZM4.10852 10.9131H19.9695C21.0735 10.9131 22.1085 9.71342 22.1085 10.9131V21.8188C22.1085 22.3973 21.8978 22.9521 21.5227 23.3611C21.1477 23.7701 20.639 23.9999 20.1085 23.9999H4.10852C3.57809 23.9999 3.06938 23.7701 2.69431 23.3611C2.31923 22.9521 2.10852 22.3973 2.10852 21.8188V11.394C2.10852 10.1889 3.00852 10.9131 4.10852 10.9131Z" fill="currentColor"/>
<path d="M7.60828 0.00732422H16.6083V8.18663C16.6083 9.48821 16.1342 10.7365 15.2903 11.6568C14.4463 12.5772 13.3017 13.0942 12.1083 13.0942C10.9148 13.0942 9.77021 12.5772 8.9263 11.6568C8.08238 10.7365 7.60828 9.48821 7.60828 8.18663V0.00732422Z" fill="currentColor"/>
<path d="M8.60828 1.09766H15.6083V8.18639C15.6083 9.19872 15.2395 10.1696 14.5831 10.8854C13.9268 11.6013 13.0365 12.0034 12.1083 12.0034C11.18 12.0034 10.2898 11.6013 9.6334 10.8854C8.97703 10.1696 8.60828 9.19872 8.60828 8.18639V1.09766Z" fill="currentColor" stroke="currentColor" stroke-width="2"/>
<path d="M14.6443 0.00732393H20.0893C20.6184 -0.0397933 21.1433 0.141785 21.5507 0.512893C21.9582 0.884002 22.2155 1.4149 22.2673 1.99108L23.3563 8.93368C23.3563 11.1246 21.4063 12.9012 19.0003 12.9012C16.5943 12.9012 14.6443 11.1246 14.6443 8.93368V0.00732393Z" fill="currentColor"/>
<path d="M16.6443 2.18847V8.93368C16.6576 9.15476 16.7144 9.37014 16.8106 9.56525C16.9069 9.76035 17.0405 9.93064 17.2023 10.0646C17.7156 10.5017 18.3512 10.7328 19.0023 10.7189C19.6534 10.7328 20.289 10.5017 20.8023 10.0646C21.0921 9.81911 21.2881 9.4651 21.3523 9.07109L20.2743 2.22119C20.2148 2.19874 20.1522 2.18767 20.0893 2.18847H16.6443ZM14.6443 0.00732393H20.0893C20.6184 -0.0397933 21.1433 0.141785 21.5507 0.512893C21.9582 0.884002 22.2155 1.4149 22.2673 1.99108L23.3563 8.93368C23.3563 11.1246 21.4063 12.9012 19.0003 12.9012C16.5943 12.9012 14.6443 11.1246 14.6443 8.93368V0.00732393Z" fill="currentColor"/>
<path d="M9.35629 0.00878877H3.91129C3.38219 -0.0383285 2.85732 0.14325 2.44987 0.514358C2.04242 0.885467 1.78506 1.41637 1.73329 1.99254L0.644287 8.93514C0.644287 11.1261 2.59429 12.9027 5.00029 12.9027C7.40629 12.9027 9.35629 11.1261 9.35629 8.93514V0.00878877Z" fill="currentColor"/>
<path d="M3.91129 2.18994C3.84835 2.18913 3.78576 2.2002 3.72629 2.22266L2.65229 9.07255C2.71651 9.46656 2.91249 9.82058 3.20229 10.0661C3.71557 10.5032 4.35118 10.7342 5.00229 10.7204C5.65339 10.7342 6.28901 10.5032 6.80229 10.0661C6.96411 9.93211 7.09767 9.76182 7.19394 9.56671C7.2902 9.3716 7.34693 9.15622 7.36029 8.93514V2.18994H3.91129ZM3.91129 0.00878877H9.35629V8.93514C9.35629 11.1261 7.40629 12.9027 5.00029 12.9027C2.59429 12.9027 0.644287 11.1261 0.644287 8.93514L1.73329 1.99254C1.78506 1.41637 2.04242 0.885467 2.44987 0.514358C2.85732 0.14325 3.38219 -0.0383285 3.91129 0.00878877Z" fill="currentColor"/>
</svg>
